<?xml version="1.0" encoding="UTF-8" standalone="no"?><!DOCTYPE svg PUBLIC "-//W3C//DTD SVG 1.1//EN" "http://www.w3.org/Graphics/SVG/1.1/DTD/svg11.dtd"><svg width="100%" height="100%" viewBox="0 0 1920 800" version="1.1" xmlns="http://www.w3.org/2000/svg" xmlns:xlink="http://www.w3.org/1999/xlink" xml:space="preserve" xmlns:serif="http://www.serif.com/" style="fill-rule:evenodd;clip-rule:evenodd;stroke-linejoin:round;stroke-miterlimit:2;"><path d="M-0.074,0.095c0,0 289.087,53.063 494.568,53.063c205.481,0 400.208,-55.78 846.974,-55.78c301.061,0 465.86,63.671 576.281,111.569c0.339,0.147 2.251,0.874 2.251,0.874l0,690.179c0,0 -259.777,-45.401 -484.386,-45.401c-224.61,0 -699,45.252 -935.614,45.252c-236.614,0 -349.006,-14.339 -492.22,-79.968c-2.694,-1.235 -7.78,-4.311 -7.78,-4.311l-0.074,-715.477Z" style="fill:#00cafe;"/><path d="M1731.15,548.545c1.323,-6.555 -3.754,-10.896 -10.061,-8.278c-4.848,2.01 -6.867,7.025 -9.955,10.822l-0.192,0.195c2.29,2.465 4.859,4.678 7.996,5.707c6.615,2.169 10.956,-2.219 12.212,-8.446Zm-25.894,-3.966c-0.983,-3.543 -2.598,-6.872 -5.786,-8.953c-4.567,-2.985 -10.734,-0.769 -11.534,4.879c-0.791,5.593 5.758,9.114 10.446,6.806c2.471,-1.216 4.075,-3.327 6.874,-2.732Zm8.089,-42.377c3.536,-1.471 5.685,-5.252 5.094,-9.066c-0.732,-4.743 -5.973,-6.183 -9.986,-4.533c-4.686,1.925 -6.457,7.019 -6.936,11.683c3.464,2.299 7.806,3.589 11.828,1.916Zm-17.739,1.616c-3.479,-2.827 -7.447,-5.892 -12.08,-5.935c-4.117,-0.039 -10.016,3.674 -7.714,8.491c1.737,3.633 6.783,4.224 10.208,3.317c3.693,-0.981 6.658,-3.502 9.586,-5.873Zm1.739,-47.317c-0.297,-3.332 -0.319,-6.805 -1.852,-9.827c-1.82,-3.584 -5.918,-4.742 -8.808,-1.665c-2.587,2.753 -2.785,6.8 -0.042,9.503c3.036,2.993 6.942,2.734 10.702,1.989Zm3.381,3.64c1.116,3.452 7.91,8.119 9.412,8.603c4.09,1.315 9.094,-0.541 10.718,-4.73c1.996,-5.147 -3.017,-8.836 -7.656,-9.156c-3.828,-0.266 -6.981,1.657 -10.429,2.582c-0.716,0.878 -1.404,1.773 -2.045,2.701Zm25.727,-19.037c-1.474,-2.977 -2.983,-5.968 -4.202,-9.038c-0.756,-0.099 -1.341,-0.521 -1.732,-1.077c-2.814,1.427 -5.509,3.115 -7.912,5.145c4.244,2.727 8.866,4.372 13.846,4.97Zm-3.777,-14.529l0.181,0.261c20.858,-3.424 39.658,-15.4 51.499,-32.973c11.341,-16.831 16.868,-39.487 3.018,-56.468c-11.958,-14.659 -32.038,-19.438 -49.298,-11.772c-18.389,8.168 -29.955,26.563 -30.349,46.524c-0.2,10.043 2.198,20.189 6.541,29.224c4.58,9.529 11.643,17.212 18.408,25.204Zm12.691,120.358c-0.551,6.895 -4.655,14.037 -12.179,14.29c-6.727,0.227 -11.347,-4.051 -14.841,-9.16c-0.197,0.469 -0.388,0.941 -0.608,1.402c-3.923,8.186 -12.789,15.301 -22.275,13.315c-1.64,-0.344 -1.438,-3.111 0.196,-3.29c10.591,-1.16 16.709,-7.468 19.457,-15.787c-5.134,2.875 -9.841,6.008 -15.757,2.546c-4.871,-2.851 -6.703,-8.665 -4.048,-13.711c2.786,-5.295 9.054,-7.719 14.511,-4.936c3.462,1.768 5.587,4.644 6.904,7.96c0.246,-2.939 0.191,-5.984 -0.14,-9.036c-0.737,-6.788 -2.516,-13.478 -5.254,-19.732c-0.897,-2.047 -1.946,-4.017 -3.033,-5.965c-4.069,4.625 -9.514,9.629 -16.059,9.466c-4.965,-0.125 -10.293,-3.301 -11.064,-8.538c-0.797,-5.43 3.718,-9.966 8.635,-11.341c5.363,-1.502 10.498,0.788 14.873,3.926c-0.758,-1.432 -1.475,-2.888 -2.105,-4.383c-4.866,-11.536 -2.974,-23.427 2.918,-33.277c-4.186,0.661 -8.879,-0.718 -11.78,-3.615c-3.954,-3.948 -3.912,-9.998 -0.434,-14.24c3.304,-4.029 8.995,-4.986 12.99,-1.33c3.238,2.96 4.38,8.037 4.025,12.595c4.172,-4.788 9.344,-8.8 15.074,-11.634c-2.588,-1.137 -5.065,-2.575 -7.394,-4.316c-1.125,-0.84 -1.27,-2.425 -0.213,-3.399c3.623,-3.337 7.468,-5.554 11.976,-6.409c-19.379,-16.183 -30.941,-40.805 -26.12,-66.304c3.907,-20.672 19.631,-38.392 40.165,-43.746c19.241,-5.018 39.94,3.498 50.668,20.144c12.334,19.14 5.215,43.312 -7.237,60.58c-12.08,16.752 -30.34,28.619 -50.606,32.453c1.891,3.603 3.471,7.425 5.206,11.074c0.698,1.467 -0.413,3.055 -1.996,3.033c-3.717,-0.051 -7.316,-0.649 -10.754,-1.735c-3.703,2.206 -7.238,4.718 -10.436,7.54c4.409,-0.659 9.087,0.071 12.324,2.456c5.042,3.713 5.414,10.392 1.35,14.987c-4.918,5.56 -12.914,5.209 -18.482,0.794c-1.405,-1.113 -3.678,-3.608 -5.088,-6.243c-2.484,4.45 -4.111,9.407 -4.493,14.93c-0.439,6.374 1.491,12.09 4.1,17.629c1.31,-5.093 4.465,-9.715 9.715,-11.354c5.658,-1.767 12.271,0.566 14.049,6.579c1.591,5.388 -1.132,11.654 -6.166,14.14c-4.2,2.074 -9.116,1.5 -13.145,-0.658c1.932,3.695 3.774,7.424 5.012,11.335c2.823,8.905 4.472,19.339 2.694,28.856c3.161,-4.855 7.938,-8.986 13.734,-9.286c6.781,-0.348 11.671,4.644 11.131,11.395Z" style="fill:#f9c6a1;fill-rule:nonzero;"/><path d="M136.712,208.421c-6.374,-1.007 -12.698,-3.139 -19.08,-4.143c-0.865,-0.136 -1.733,-0.238 -2.601,-0.358c2.662,5.57 -0.332,12.773 -5.436,16.108c3.822,4.891 7.571,9.835 11.153,14.887c0.512,0.721 0.218,1.524 -0.353,2.012c1.031,0.452 2.049,0.936 3.074,1.401c1.887,-0.446 3.538,-1.778 4.074,-3.751c0.672,-2.463 -0.604,-4.497 -2.333,-6.106c-0.883,-0.822 -0.38,-2.044 0.499,-2.455c0.349,-0.392 0.984,-0.571 1.52,-0.153c1.792,1.394 5.009,1.084 6.097,-1.095c1.173,-2.352 -0.448,-4.559 -2.456,-5.628c-1.441,-0.77 -0.537,-2.945 0.993,-2.641c2.2,0.013 3.94,-1.343 4.844,-3.344c0.841,-1.853 0.507,-3.139 0.005,-4.734Zm3.774,3.142c-0.191,1.108 -0.588,2.178 -1.124,3.054c-1.068,1.744 -2.663,3.066 -4.51,3.652l0.296,0.39c17.813,8.982 34.889,19.51 52.491,28.903c18.267,9.747 36.844,18.901 55.634,27.592c0.711,-2.413 1.245,-4.905 1.59,-7.48c-18.407,-9.957 -36.747,-20.04 -55.204,-29.909c-9.233,-4.936 -18.492,-9.824 -27.752,-14.709c-4.8,-2.533 -9.611,-5.048 -14.407,-7.592c-2.349,-1.247 -4.95,-2.287 -7.014,-3.901Zm108.412,55.661c-0.159,0.113 -0.317,0.182 -0.471,0.232c0.013,0.135 0.032,0.267 0.016,0.415c-1.296,11.703 -6.675,22.175 -15.805,29.648c0.116,1.053 -0.821,2.088 -2.075,1.81c-0.147,3.636 3.473,5.396 6.426,5.313c3.005,-0.086 5.026,-2.126 6.759,-4.344c2.449,-3.135 4.171,-6.879 6.057,-10.363c2.233,-4.124 5.169,-8.448 6.566,-12.969c1.305,-4.221 -1.019,-14.327 -7.473,-9.742Zm11.41,3.832c1.358,7.911 -5.849,17.131 -9.275,23.415c-2.275,4.175 -5.221,9.94 -9.74,12.352c1.5,6.113 8.233,3.883 11.434,0.487c3.022,-3.209 5.416,-7.515 7.541,-11.356c2.797,-5.051 12.743,-26.183 0.04,-24.898Zm9.686,7.119c0.19,7.265 -4.963,15.606 -8.198,21.107c-2.348,3.996 -5.798,10.497 -10.532,13.334c4.609,3.41 13.876,10.446 18.722,7.855c4.672,-2.498 7.982,-10.216 10.298,-14.743c2.393,-4.68 9.005,-15.573 4.723,-20.576c-1.467,-1.713 -5.329,-2.956 -7.354,-3.899c-2.5,-1.164 -5.06,-2.167 -7.659,-3.078Zm-87.6,-22.398c8.932,4.682 17.864,9.366 26.796,14.05c9.437,4.949 19.999,9.271 28.675,15.459c0.369,0.262 0.509,0.713 0.476,1.133c1.625,-2.725 2.974,-5.587 4.048,-8.578l-0.336,-0.111c-18.824,-8.759 -37.403,-18.024 -55.74,-27.758c-16.905,-8.975 -34.203,-18.027 -49.978,-28.97c0.51,1.79 0.346,3.775 -0.697,5.333c-1.065,1.589 -2.759,2.462 -4.542,2.658c17.377,8.311 34.253,17.844 51.298,26.784Zm48.788,40.057c2.521,-2.668 4.723,-5.508 6.601,-8.513c-0.194,0.086 -0.425,0.11 -0.708,0.008c-9.425,-3.449 -18.323,-9.248 -27.188,-13.946c-9.254,-4.904 -18.507,-9.807 -27.76,-14.71c-17.104,-9.064 -34.608,-17.648 -51.398,-27.316c0.308,1.554 0.193,3.194 -0.427,4.671c-0.718,1.716 -2.022,2.993 -3.586,3.779c16.83,7.891 33.047,17.391 49.379,26.169c8.968,4.819 17.93,9.647 26.892,14.475c9.328,5.026 19.335,9.554 28.195,15.383Zm-123.143,-77.797c4.298,-3.317 5.036,-9.208 2.979,-14.423l-0.062,-0.213c-5.113,-0.567 -10.246,-0.888 -15.393,-0.969c4.161,5.188 8.354,10.369 12.476,15.605Zm32.848,-10.007c3.02,0.571 5.777,2.467 8.555,3.91c4.817,2.503 9.611,5.05 14.407,7.592c9.249,4.905 18.47,9.86 27.688,14.821c18.54,9.979 37.086,19.97 55.441,30.285l0.243,-0.223c4.276,-3.257 9.968,-0.536 12.18,3.859c4.133,-1.239 8.48,2.036 9.927,6.07c4.733,1.547 9.321,3.383 13.719,5.737c2.346,1.256 5.618,2.57 6.778,5.164c1.347,3.011 -0.372,6.799 -1.327,9.611c-1.453,4.28 -3.218,8.467 -5.293,12.482c-2.671,5.173 -7.006,14.731 -13.198,16.702c-7.159,2.28 -16.197,-5.978 -20.977,-10.409c-0.878,0.272 -1.791,0.415 -2.747,0.386c-3.717,-0.112 -7.274,-3.003 -6.463,-6.559c-1.154,0.393 -2.399,0.58 -3.754,0.469c-4.734,-0.387 -8.82,-4.546 -7.051,-9.224c-9.578,-4.162 -18.728,-9.893 -27.918,-14.819c-8.974,-4.811 -17.945,-9.621 -26.912,-14.441c-17.472,-9.389 -35.556,-18.215 -52.37,-28.796c-0.318,-0.04 -0.636,-0.091 -0.95,-0.166c-0.541,-0.13 -0.766,-0.515 -0.769,-0.915c-0.46,-0.295 -0.929,-0.574 -1.388,-0.871c-0.689,-0.447 -0.684,-1.177 -0.329,-1.66l-0.145,-0.135c-4.303,-4.953 -8.443,-10.062 -12.515,-15.232l-0.025,0.008c-1.023,0.207 -1.551,-0.816 -1.16,-1.512c-4.856,-6.199 -9.618,-12.476 -14.422,-18.68c-0.86,-1.11 0.261,-2.803 1.539,-2.793c8.28,0.06 16.526,0.584 24.722,1.782c7.752,1.134 16.959,2.17 23.962,5.863c0.611,0.323 0.759,1.091 0.552,1.694Z" style="fill:#fcf488;fill-rule:nonzero;"/></svg>