<?xml version="1.0" encoding="UTF-8" standalone="no"?><!DOCTYPE svg PUBLIC "-//W3C//DTD SVG 1.1//EN" "http://www.w3.org/Graphics/SVG/1.1/DTD/svg11.dtd"><svg width="100%" height="100%" viewBox="0 0 101 72" version="1.1" xmlns="http://www.w3.org/2000/svg" xmlns:xlink="http://www.w3.org/1999/xlink" xml:space="preserve" xmlns:serif="http://www.serif.com/" style="fill-rule:evenodd;clip-rule:evenodd;stroke-linejoin:round;stroke-miterlimit:2;"><path d="M33.393,27.692c1.638,-1.677 3.532,-3.144 5.541,-4.379c1.223,12.392 8.96,23.515 20.336,28.689c-2.813,1.186 -5.836,2.044 -8.878,2.497c-0.009,-0.16 -0.082,-0.32 -0.246,-0.454c-4.094,-3.371 -8.133,-6.094 -11.145,-10.571c-3.063,-4.555 -4.778,-9.694 -5.356,-15.2c-0.026,-0.245 -0.119,-0.436 -0.252,-0.582Zm-1.754,2.02c1.207,9.705 7.097,21.051 16.461,25.054c-4.753,0.376 -9.434,-0.308 -13.306,-2.417c-5.358,-2.917 -7.794,-8.884 -6.71,-14.899c0.517,-2.876 1.798,-5.462 3.555,-7.738Zm-6.389,10.995c-0.004,0.341 0.01,0.682 0.029,1.022c-1.484,0.243 -3.011,0.264 -4.456,-0.003c-1.544,-0.286 -2.886,-1.021 -4.386,-1.409c-0.681,-0.176 -0.917,0.7 -0.562,1.091c2.118,2.334 6.365,2.449 9.53,1.672c0.238,1.696 0.764,3.366 1.605,4.968c-2.802,0.396 -6.018,1.705 -7.475,4.243c-0.309,0.536 0.384,1.106 0.884,0.744c2.344,-1.694 4.145,-3.337 7.09,-3.881l0.112,-0.042c0.207,0.329 0.428,0.655 0.664,0.977c-0.106,0.035 -0.198,0.11 -0.249,0.238c-0.567,1.436 -1.085,2.884 -1.605,4.336c-0.551,1.536 -1.338,3.191 -1.504,4.796c-0.066,0.635 0.741,0.938 1.093,0.33c0.767,-1.329 1.084,-2.934 1.511,-4.383c0.451,-1.535 0.903,-3.069 1.309,-4.613c0.764,0.921 1.612,1.734 2.536,2.437c-0.403,-0.049 -0.844,0.173 -0.976,0.661c-1.229,4.538 0.524,9.035 -3.128,13.068c-4.939,5.454 -12.187,0.292 -9.766,-5.322c0.861,-0.646 1.581,-1.374 2.092,-2.158c0.561,-0.862 -0.593,-1.453 -1.298,-1.092c-2.48,1.274 -4.378,2.95 -7.213,3.532c-3.652,0.75 -7.337,-0.135 -7.214,-4.482c0.132,-4.669 4.206,-8.601 8.717,-9.607c0.173,-0.038 0.282,-0.139 0.342,-0.263c0.817,-0.275 0.655,-1.564 -0.167,-1.804c-3.288,-0.961 -7.347,-1.262 -9.396,-4.3c-2.375,-3.519 -0.221,-7.67 4.28,-7.479c6.287,0.268 12.442,3.493 17.508,6.687l0.093,0.036Zm35.748,10.516c-11.736,-5.865 -19.403,-17.099 -20.159,-30.27l-0.028,-0.173c3.587,-2.016 7.579,-3.275 11.616,-3.711c-1.981,5.949 0.257,12.034 2.818,17.275c2.536,5.191 5.57,11.642 11.684,13.187c-0.215,0.174 -0.43,0.35 -0.653,0.516c-1.591,1.185 -3.373,2.254 -5.278,3.176Zm7.087,-4.685c-5.736,-1.842 -8.589,-7.867 -11.03,-12.855c-2.594,-5.3 -4.347,-10.728 -2.678,-16.755c2.789,-0.115 5.572,0.16 8.228,0.87c-2.177,8.719 2.86,18.433 9.787,23.229c-1.116,2.012 -2.569,3.893 -4.307,5.511Zm-2.438,-16.753c-1.462,-3.811 -1.488,-7.522 -1.47,-11.516c1.028,0.347 2.037,0.754 3.011,1.236c8.367,4.156 9.357,13.036 5.748,20.474c-3.2,-2.779 -5.767,-6.224 -7.289,-10.194Zm11.53,6.022c0.049,-0.254 0.099,-0.509 0.139,-0.768c0.1,-0.644 0.168,-1.271 0.21,-1.886c3.46,-0.677 6.719,-0.162 8.941,2.617c0.387,0.486 1.124,-0.023 0.838,-0.564c-1.678,-3.176 -6.029,-5.18 -9.738,-3.79c-0.04,-1.927 -0.376,-3.688 -0.959,-5.285c1.154,-0.198 2.293,-0.797 3.427,-1.105c1.557,-0.423 3.142,-0.659 4.732,-0.846c0.629,-0.073 0.568,-0.925 -0.036,-0.933c-1.651,-0.024 -3.286,0.151 -4.922,0.485c-1.199,0.245 -2.66,0.47 -3.722,1.159c-0.174,-0.368 -0.367,-0.724 -0.568,-1.073c2.919,-1.707 4.654,-5.031 4.653,-8.233c0.001,-0.591 -0.99,-0.637 -1.062,-0.039c-0.354,2.967 -1.991,5.243 -4.503,6.874c-0.137,-0.186 -0.274,-0.371 -0.419,-0.55c0.014,-5.892 1.007,-14.454 6.288,-18.293c3.781,-2.748 8.282,-0.503 8.958,3.652c0.608,3.737 -1.949,6.372 -4.164,9.154c-0.382,0.48 -0.193,0.993 0.201,1.201c-0.509,0.304 -0.047,0.984 0.457,0.86c3.855,-0.946 9.849,-2.876 12.11,1.365c2.613,4.903 -5.354,5.102 -7.806,7.483c-0.179,0.174 -0.22,0.365 -0.187,0.543c-0.227,0.273 -0.2,0.738 0.233,0.763c3.322,0.19 6.783,1.729 7.811,5.011c1.121,3.58 -1.181,6.894 -4.826,7.987c-6.703,2.009 -10.363,-3.225 -15.415,-5.787c-0.228,-0.115 -0.463,-0.093 -0.671,-0.002Zm-41.499,-12.95c-5.577,3.794 -9.637,9.895 -10.328,16.135c-3.543,-2.798 -7.687,-4.927 -12.081,-6.25c-3.565,-1.072 -8.677,-2.417 -11.667,1.028c-2.215,2.553 -1.972,6.521 -0.254,9.052c1.789,2.633 5.09,4.049 8.378,4.566c-5.289,1.945 -9.58,7.612 -7.688,13.111c1.694,4.928 8.507,4.805 13.346,2.424c-1.051,4.524 2.145,9.309 7.713,8.783c7.915,-0.748 11.315,-11.862 8.948,-17.962l-0.033,-0.055c6.185,4.248 15.205,4.189 22.585,2.353c9.796,-2.437 19.565,-8.917 22.247,-18.799c4.316,5.648 14.999,10.134 21.266,3.905c5.326,-5.294 1.432,-12.259 -4.532,-13.438c2.328,-0.611 4.808,-1.429 6.178,-3.203c1.336,-1.73 1.252,-3.961 0.308,-5.727c-2.489,-4.653 -7.773,-4.059 -12.222,-2.287c5.689,-4.877 5.281,-16.358 -3.509,-16.492c-9.423,-0.143 -11.802,12.572 -11.642,20.27c-8.923,-8.329 -27.79,-7.493 -37.013,2.586Z" style="fill:#7f90c8;fill-rule:nonzero;"/></svg>