<?xml version="1.0" encoding="UTF-8" standalone="no"?><!DOCTYPE svg PUBLIC "-//W3C//DTD SVG 1.1//EN" "http://www.w3.org/Graphics/SVG/1.1/DTD/svg11.dtd"><svg width="100%" height="100%" viewBox="0 0 100 100" version="1.1" xmlns="http://www.w3.org/2000/svg" xmlns:xlink="http://www.w3.org/1999/xlink" xml:space="preserve" xmlns:serif="http://www.serif.com/" style="fill-rule:evenodd;clip-rule:evenodd;stroke-linejoin:round;stroke-miterlimit:2;"><g><path d="M78.415,48.465c-6.232,-1.781 -12.536,-3.232 -18.935,-4.339c-1.172,-0.203 -1.382,-1.438 -0.903,-2.216c-1.213,-3.627 -1.066,-7.907 -1.364,-11.674c-0.255,-3.232 -0.484,-6.465 -0.713,-9.699c-4.207,6.902 -7.662,14.2 -10.369,21.837c-0.202,0.566 -0.995,0.94 -1.558,0.806c-7.545,-1.781 -15.096,-3.546 -22.645,-5.313c4.062,5.148 8.126,10.295 12.176,15.452c0.317,0.406 0.381,0.822 0.285,1.193c0.06,0.236 0.054,0.497 -0.051,0.769c-1.712,4.397 -4.83,8.504 -7.163,12.621c-1.732,3.055 -3.402,6.144 -5.048,9.246c6.204,-2.592 12.498,-5.454 18.911,-7.153c0.424,-0.379 1.038,-0.241 1.504,0.118c0.31,-0.13 0.661,-0.142 0.991,0.045c3.43,1.95 6.393,4.774 9.622,7.056c3.072,2.17 6.238,4.191 9.471,6.107c-0.564,-6.781 -1.571,-13.47 -2.811,-20.174c-0.108,-0.588 0.256,-1.011 0.728,-1.191c-0.44,-0.439 -0.546,-1.195 0.125,-1.67c5.811,-4.111 11.751,-7.999 17.747,-11.821Zm-18.029,-7.094c7.361,1.275 14.604,2.99 21.751,5.171c1.101,0.337 1.773,1.877 0.588,2.626c-6.897,4.365 -13.771,8.746 -20.766,12.952l-0.093,0.046c0.116,0.115 0.211,0.26 0.263,0.448c2.118,7.625 3.292,15.48 3.798,23.37c0.07,1.096 -1.13,2.16 -2.204,1.549c-3.893,-2.215 -7.701,-4.571 -11.387,-7.115c-3.489,-2.409 -7.368,-4.862 -10.188,-8.063c-7.134,3.752 -15.212,6.158 -22.712,9.077c-1.175,0.457 -2.45,-0.868 -1.851,-2.015c2.358,-4.508 4.787,-8.978 7.303,-13.399c2.055,-3.61 3.982,-7.729 6.607,-11.022c-4.886,-6.225 -9.751,-12.466 -14.622,-18.703c-0.783,-1.001 0.237,-2.638 1.485,-2.341c8.52,2.038 17.038,4.08 25.559,6.103c3.219,-8.773 7.432,-17.045 12.609,-24.835c0.693,-1.044 2.425,-0.352 2.504,0.782c0.323,4.654 0.673,9.308 0.966,13.965c0.229,3.628 0.954,7.738 0.39,11.404Z" style="fill:#02bff2;fill-rule:nonzero;"/><path d="M94.567,46.023c-9.149,-2.785 -18.408,-4.71 -27.776,-6.662c-1.289,-0.27 -1.302,-1.818 -0.454,-2.38c-0.629,-0.664 -0.975,-1.505 -1.361,-2.57c-1.218,-3.367 -1.991,-6.994 -2.859,-10.467c-1.532,-6.133 -2.971,-12.291 -4.424,-18.444c-5.98,8.374 -11.127,17.259 -15.421,26.624c-0.201,0.441 -0.536,0.668 -0.898,0.739l-0.128,0.046c-5.932,1.057 -12.989,-0.633 -18.941,-1.313c-5.501,-0.629 -10.988,-1.344 -16.468,-2.122c5.693,7.711 11.565,15.349 16.892,23.303c0.314,0.47 0.321,0.939 0.147,1.324c0.619,0.287 1.057,0.981 0.705,1.791c-2.281,5.256 -4.687,10.459 -7.039,15.684c-1.124,2.498 -2.25,4.997 -3.374,7.495c-1.029,2.284 -2.744,4.963 -3.209,7.601c10.889,-3.266 21.776,-6.675 32.864,-9.193c0.527,-0.121 0.842,0.281 0.889,0.726c0.126,0.04 0.251,0.091 0.374,0.172c8.626,5.657 17.095,11.573 25.609,17.401c-0.354,-4.903 -0.713,-9.805 -1.036,-14.709c-0.34,-5.155 -1.605,-11.261 -0.48,-16.332c0.151,-0.683 1.121,-0.814 1.38,-0.128l0.001,0c2.915,-3.772 7.153,-5.47 11.298,-7.945c5.005,-2.988 9.559,-6.575 13.709,-10.641Zm3.746,0.259c-3.942,4.149 -8.282,7.873 -13.068,11.024c-4.809,3.167 -11.289,5.167 -14.97,9.717c1.013,4.39 0.799,9.436 1.131,13.78c0.451,5.867 0.849,11.737 1.265,17.608c0.091,1.287 -1.301,1.861 -2.28,1.194c-9.349,-6.38 -18.808,-12.628 -28.045,-19.17c-0.331,-0.235 -0.486,-0.52 -0.52,-0.808c-10.784,3.921 -21.886,7 -32.877,10.266c-0.842,0.251 -1.812,-0.224 -1.883,-1.176c-0.393,-5.25 3.633,-10.967 5.727,-15.61c2.742,-6.079 5.423,-12.19 8.246,-18.233c-0.226,-0.087 -0.441,-0.236 -0.627,-0.469c-6.682,-8.421 -12.775,-17.378 -19.118,-26.058c-0.787,-1.076 0.23,-2.519 1.482,-2.337c6.667,0.973 13.345,1.877 20.032,2.704c5.383,0.666 11.7,0.591 17.021,2.147c4.788,-10.412 10.627,-20.245 17.455,-29.447c0.567,-0.764 2.087,-0.584 2.321,0.405c1.375,5.804 2.746,11.608 4.098,17.418c0.555,2.381 1.106,4.762 1.615,7.154c0.597,2.805 0.65,8.6 3.052,10.502l0.062,0.071c9.828,1.403 19.582,4.064 29.038,6.998c0.942,0.292 1.67,1.45 0.843,2.32Z" style="fill:#02bff2;fill-rule:nonzero;"/></g></svg>