<?xml version="1.0" encoding="UTF-8" standalone="no"?>
<!DOCTYPE svg PUBLIC "-//W3C//DTD SVG 1.1//EN" "http://www.w3.org/Graphics/SVG/1.1/DTD/svg11.dtd">
<svg width="100%" height="100%" viewBox="0 0 276 276" version="1.1" xmlns="http://www.w3.org/2000/svg" xmlns:xlink="http://www.w3.org/1999/xlink" xml:space="preserve" xmlns:serif="http://www.serif.com/" style="fill-rule:evenodd;clip-rule:evenodd;stroke-linejoin:round;stroke-miterlimit:2;">
    <g transform="matrix(1,0,0,1,-10.958,-13.436)">
        <circle cx="148.761" cy="151.239" r="137.803" style="fill:rgb(32,176,229);"/>
        <path d="M149.381,128.094L191.845,85.629C196.815,80.659 204.886,80.659 209.856,85.628C214.826,90.599 214.825,98.669 209.855,103.639L167.391,146.104L209.856,188.569C214.825,193.539 214.825,201.609 209.856,206.579C204.886,211.549 196.815,211.549 191.846,206.579L149.381,164.114L106.915,206.579C101.946,211.549 93.875,211.549 88.905,206.579C83.936,201.609 83.936,193.539 88.905,188.569L131.37,146.104L88.906,103.639C83.936,98.669 83.935,90.599 88.905,85.628C93.875,80.659 101.946,80.659 106.916,85.629L149.381,128.094Z" style="fill:white;"/>
    </g>
</svg>
