<?xml version="1.0" encoding="UTF-8" standalone="no"?>
<!DOCTYPE svg PUBLIC "-//W3C//DTD SVG 1.1//EN" "http://www.w3.org/Graphics/SVG/1.1/DTD/svg11.dtd">
<svg width="100%" height="100%" viewBox="0 0 27 27" version="1.1" xmlns="http://www.w3.org/2000/svg" xmlns:xlink="http://www.w3.org/1999/xlink" xml:space="preserve" xmlns:serif="http://www.serif.com/" style="fill-rule:evenodd;clip-rule:evenodd;stroke-linejoin:round;stroke-miterlimit:2;">
    <g transform="matrix(1,0,0,1,-946.663,-5835)">
        <g id="icon" transform="matrix(0.815487,0,0,0.815487,959.832,5848.17)">
            <g transform="matrix(1,0,0,1,-16.148,-16.148)">
                <clipPath id="_clip1">
                    <rect x="0" y="0" width="32.296" height="32.296"/>
                </clipPath>
                <g clip-path="url(#_clip1)">
                    <path d="M31.923,9.14L13.417,27.642C12.921,28.136 12.118,28.136 11.624,27.642L0.37,16.316C-0.124,15.82 -0.124,15.014 0.37,14.521L2,12.893C2.496,12.398 3.299,12.398 3.793,12.893L12.5,21.461L28.369,5.591C28.863,5.097 29.666,5.097 30.164,5.591L31.922,7.345C32.421,7.84 32.421,8.646 31.923,9.14Z" style="fill:rgb(32,176,229);fill-rule:nonzero;"/>
                </g>
            </g>
        </g>
    </g>
</svg>
