<?xml version="1.0" encoding="UTF-8" standalone="no"?>
<!DOCTYPE svg PUBLIC "-//W3C//DTD SVG 1.1//EN" "http://www.w3.org/Graphics/SVG/1.1/DTD/svg11.dtd">
<svg width="100%" height="100%" viewBox="0 0 20 20" version="1.1" xmlns="http://www.w3.org/2000/svg" xmlns:xlink="http://www.w3.org/1999/xlink" xml:space="preserve" xmlns:serif="http://www.serif.com/" style="fill-rule:evenodd;clip-rule:evenodd;stroke-linejoin:round;stroke-miterlimit:2;">
    <g transform="matrix(1,0,0,1,-41.239,-224.648)">
        <g transform="matrix(0.423245,0,0,0.423245,-46.055,146.285)">
            <g transform="matrix(1,0,0,1,-30.2426,0)">
                <path d="M283.746,208.774C283.746,221.823 273.168,232.401 260.118,232.401C247.07,232.401 236.492,221.823 236.492,208.774C236.492,195.726 247.07,185.147 260.118,185.147C273.168,185.147 283.746,195.726 283.746,208.774Z" style="fill:rgb(0,192,243);fill-rule:nonzero;"/>
            </g>
        </g>
        <g transform="matrix(0.423245,0,0,0.423245,-46.055,146.285)">
            <g transform="matrix(1.89016,0,0,1.89016,-532.803,-419.704)">
                <path d="M403.499,324.709C400.189,324.709 397.495,327.403 397.495,330.714C397.495,333.081 398.486,335.474 400.36,337.636C401.759,339.251 403.146,340.165 403.205,340.204C403.294,340.262 403.397,340.291 403.499,340.291C403.602,340.291 403.705,340.262 403.794,340.204C403.852,340.165 405.24,339.251 406.64,337.636C408.514,335.474 409.505,333.081 409.505,330.714C409.505,327.403 406.811,324.709 403.499,324.709ZM403.499,328.33C402.186,328.33 401.117,329.399 401.117,330.713C401.117,332.027 402.186,333.096 403.499,333.096C404.814,333.096 405.883,332.027 405.883,330.713C405.883,329.399 404.814,328.33 403.499,328.33Z" style="fill:white;"/>
            </g>
        </g>
    </g>
</svg>
