<?xml version="1.0" encoding="UTF-8" standalone="no"?>
<!DOCTYPE svg PUBLIC "-//W3C//DTD SVG 1.1//EN" "http://www.w3.org/Graphics/SVG/1.1/DTD/svg11.dtd">
<svg width="100%" height="100%" viewBox="0 0 186 57" version="1.1" xmlns="http://www.w3.org/2000/svg" xmlns:xlink="http://www.w3.org/1999/xlink" xml:space="preserve" xmlns:serif="http://www.serif.com/" style="fill-rule:evenodd;clip-rule:evenodd;stroke-miterlimit:2;">
    <g transform="matrix(1,0,0,1,-374.818,-11.7219)">
        <g transform="matrix(1,0,0,1,-0.56381,-13.7998)">
            <g transform="matrix(0.261692,0,0,0.261692,375.382,25.2704)">
                <path d="M387.885,184.547L393.693,170.329L402.71,170.329L395.083,186.088L402.71,206.022L393.978,206.022L390.142,193.596L387.885,197.722L387.885,206.022L379.968,206.022L379.968,170.329L387.885,170.329L387.885,184.547Z" style="fill-rule:nonzero;"/>
                <rect x="405.833" y="170.329" width="8.298" height="35.693" style="fill-rule:nonzero;"/>
                <path d="M427.232,199.61L429.296,199.61C431.646,199.61 432.703,198.615 432.703,195.832L432.703,180.421C432.703,177.736 431.646,176.742 429.249,176.742L427.232,176.742L427.232,199.61ZM418.931,170.329L430.497,170.329C437.739,170.329 441.002,173.064 441.002,179.378L441.002,196.777C441.002,202.642 437.692,206.022 430.497,206.022L418.931,206.022L418.931,170.329Z" style="fill-rule:nonzero;"/>
                <path d="M452.903,194.142L452.903,196.378C452.903,199.61 454.104,200.455 456.117,200.455C457.797,200.455 458.853,199.162 458.853,196.976C458.853,194.838 457.797,193.644 455.687,192.302L450.698,189.121C447.771,187.282 445.805,184 445.805,179.328C445.805,173.015 449.833,169.535 456.022,169.535C461.637,169.535 466.338,172.715 466.338,180.471L466.338,181.068L458.853,181.068L458.853,180.322C458.853,177.24 457.75,175.947 455.925,175.947C454.295,175.947 453.384,176.991 453.384,178.582C453.384,180.521 454.056,181.614 456.07,182.857L461.205,186.088C464.276,188.026 466.338,190.464 466.338,195.932C466.338,203.337 462.453,206.867 455.925,206.867C448.73,206.867 445.323,203.438 445.323,196.777L445.323,194.142L452.903,194.142Z" style="fill-rule:nonzero;"/>
                <path d="M491.772,184.1L497.194,184.1L497.194,170.329L505.494,170.329L505.494,206.022L497.194,206.022L497.194,190.86L491.772,190.86L491.772,206.022L483.473,206.022L483.473,170.329L491.772,170.329L491.772,184.1Z" style="fill-rule:nonzero;"/>
                <path d="M522.674,192.451L520.466,176.742L520.419,176.742L518.258,192.451L522.674,192.451ZM525.552,170.329L533.18,206.022L525.025,206.022L523.778,198.865L517.443,198.865L516.388,206.022L508.135,206.022L515.622,170.329L525.552,170.329Z" style="fill-rule:nonzero;"/>
                <rect x="535.822" y="170.329" width="8.302" height="35.693" style="fill-rule:nonzero;"/>
                <path d="M557.223,185.69L559.335,185.69C561.348,185.69 562.74,184.448 562.74,181.217C562.74,178.034 561.348,176.742 559.287,176.742L557.223,176.742L557.223,185.69ZM557.223,206.022L548.92,206.022L548.92,170.329L561.973,170.329C567.154,170.329 571.042,173.362 571.042,179.328C571.042,184.746 569.552,186.834 566.339,188.376C568.832,189.121 570.657,191.01 570.657,194.739L570.657,201.549C570.657,204.133 571.424,204.879 572.145,204.879L572.145,206.022L564.851,206.022C562.74,206.022 562.356,204.133 562.356,201.399L562.356,195.533C562.356,193.247 561.636,192.104 559.045,192.104L557.223,192.104L557.223,206.022Z" style="fill-rule:nonzero;"/>
                <path d="M595.225,194.142L595.225,196.378C595.225,199.61 596.426,200.455 598.439,200.455C600.12,200.455 601.176,199.162 601.176,196.976C601.176,194.838 600.12,193.644 598.009,192.302L593.02,189.121C590.093,187.282 588.125,184 588.125,179.328C588.125,173.015 592.156,169.535 598.345,169.535C603.959,169.535 608.661,172.715 608.661,180.471L608.661,181.068L601.176,181.068L601.176,180.322C601.176,177.24 600.073,175.947 598.248,175.947C596.618,175.947 595.707,176.991 595.707,178.582C595.707,180.521 596.376,181.614 598.392,182.857L603.527,186.088C606.596,188.026 608.661,190.464 608.661,195.932C608.661,203.337 604.775,206.867 598.248,206.867C591.052,206.867 587.645,203.438 587.645,196.777L587.645,194.142L595.225,194.142Z" style="fill-rule:nonzero;"/>
                <path d="M625.6,192.451L623.394,176.742L623.345,176.742L621.187,192.451L625.6,192.451ZM628.479,170.329L636.11,206.022L627.953,206.022L626.705,198.865L620.372,198.865L619.317,206.022L611.061,206.022L618.547,170.329L628.479,170.329Z" style="fill-rule:nonzero;"/>
                <path d="M647.049,198.865L656.886,198.865L656.886,206.022L638.75,206.022L638.75,170.329L647.049,170.329L647.049,198.865Z" style="fill-rule:nonzero;"/>
                <path d="M668.401,179.028L668.401,197.124C668.401,199.262 669.84,200.307 671.282,200.307C672.674,200.307 674.161,199.262 674.161,197.124L674.161,179.028C674.161,176.991 672.674,176.097 671.282,176.097C669.84,176.097 668.401,176.991 668.401,179.028ZM682.461,179.625L682.461,195.632C682.461,202.741 679.054,206.867 671.282,206.867C663.606,206.867 660.102,202.741 660.102,195.632L660.102,179.576C660.102,173.959 663.51,169.535 671.33,169.535C679.148,169.535 682.461,174.059 682.461,179.625Z" style="fill-rule:nonzero;"/>
                <path d="M694.939,170.329L701.992,192.75L702.041,192.75C701.8,188.773 700.744,183.154 700.744,179.229L700.744,170.329L708.662,170.329L708.662,206.022L700.648,206.022L693.5,184.298L693.451,184.298C693.835,188.076 694.842,193.744 694.842,197.571L694.842,206.022L686.926,206.022L686.926,170.329L694.939,170.329Z" style="fill-rule:nonzero;"/>
            </g>
            <g transform="matrix(0.261692,0,0,0.261692,375.382,25.2704)">
                <path d="M157.049,33.75C154.965,31.417 152.301,30.284 148.902,30.284C143.037,30.284 139.75,33.068 138.242,39.321C137.864,40.94 137.414,45.586 137.414,58.521L137.414,61.291L114.662,61.291L114.662,42.817C114.662,38.69 113.555,35.622 111.277,33.441C108.963,31.227 106.397,30.15 103.431,30.15C99.958,30.15 97.196,31.384 94.987,33.923C92.677,36.575 91.556,39.746 91.556,43.616L91.556,100.572C91.556,104.594 92.648,107.956 94.895,110.854C96.97,113.533 99.677,114.837 103.173,114.837C105.712,114.837 107.983,114.1 109.944,112.63C113.119,110.146 114.662,106.376 114.662,101.105L114.662,83.563L137.414,83.563L137.414,103.633C137.414,106.802 138.474,109.405 140.653,111.592C142.858,113.806 145.315,114.837 148.389,114.837C152.354,114.837 155.295,113.411 157.399,110.462C159.299,107.662 160.262,103.887 160.262,99.242L160.262,42.817C160.262,39.141 159.211,36.175 157.049,33.75Z" style="fill:rgb(0,204,255);fill-rule:nonzero;"/>
                <path d="M226.809,87.192C223.113,91.022 218.466,92.962 212.998,92.962C207.725,92.962 203.052,90.994 199.108,87.11C195.151,83.216 193.145,78.478 193.145,73.025C193.145,67.515 195.069,62.725 198.867,58.792C202.689,54.831 207.358,52.823 212.741,52.823C218.207,52.823 222.897,54.809 226.681,58.727C230.435,62.617 232.338,67.428 232.338,73.025C232.338,78.626 230.479,83.392 226.809,87.192ZM242.477,41.281C234.293,32.806 224.567,28.687 212.741,28.687C200.996,28.687 191.184,32.917 182.745,41.619C174.281,50.343 170.167,60.529 170.167,72.76C170.167,85.079 174.26,95.287 182.681,103.967C191.078,112.624 200.911,116.833 212.741,116.833C224.546,116.833 234.261,112.552 242.439,103.744C250.67,94.877 254.672,84.568 254.672,72.228C254.672,59.908 250.683,49.786 242.477,41.281Z" style="fill:rgb(0,204,255);fill-rule:nonzero;"/>
                <path d="M323.668,73.025C323.668,78.626 321.808,83.392 318.139,87.192C314.442,91.022 309.796,92.962 304.328,92.962C299.054,92.962 294.381,90.994 290.438,87.11C286.48,83.216 284.474,78.478 284.474,73.025C284.474,67.515 286.399,62.725 290.195,58.792C294.018,54.831 298.688,52.823 304.07,52.823C309.536,52.823 314.227,54.809 318.011,58.727M333.806,41.281C325.622,32.806 315.896,28.687 304.07,28.687C292.326,28.687 282.514,32.917 274.075,41.619C265.611,50.343 261.496,60.529 261.496,72.76C261.496,85.079 265.589,95.287 274.01,103.967C282.407,112.624 292.24,116.833 304.07,116.833C315.876,116.833 325.59,112.552 333.768,103.744C342,94.877 346.002,84.568 346.002,72.228C346.002,59.908 342.012,49.786 333.806,41.281Z" style="fill:rgb(0,204,255);fill-rule:nonzero;"/>
                <path d="M396.997,92.43L378.242,92.43L378.242,79.571L395.842,79.571C403.792,79.571 404.649,84.114 404.649,86.068C404.649,87.561 404.097,92.43 396.997,92.43ZM378.242,52.823L394.043,52.823C401.501,52.823 402.079,57.693 402.079,59.186C402.079,60.648 401.518,65.416 394.301,65.416L378.242,65.416L378.242,52.823ZM418.981,71.706L417.374,70.178L418.512,68.276C420.928,64.24 422.101,60.179 422.101,55.859C422.101,49.075 419.843,43.358 415.205,38.386C410.613,33.472 405.245,31.082 398.795,31.082L366.369,31.082C363.432,31.082 360.928,32.182 358.712,34.443C356.478,36.718 355.395,39.372 355.395,42.551L355.395,102.701C355.395,106.597 356.636,109.58 359.098,111.574C361.524,113.5 364.661,114.438 368.681,114.438L404.577,114.438C410.965,114.438 416.261,112.187 420.767,107.555C425.294,102.906 427.497,97.445 427.497,90.858C427.497,83.42 424.709,77.156 418.981,71.706Z" style="fill:rgb(0,204,255);fill-rule:nonzero;"/>
                <path d="M627.867,45.479C627.867,32.246 621.796,30.55 616.506,30.55C611.158,30.55 605.019,32.246 605.019,45.479L605.019,67.947L627.867,67.336L627.867,45.479Z" style="fill:rgb(102,255,0);fill-rule:nonzero;"/>
                <path d="M591.774,42.817C591.774,39.141 590.723,36.176 588.56,33.75C586.475,31.417 583.813,30.284 580.417,30.284C574.549,30.284 571.26,33.068 569.755,39.321C569.375,40.941 568.926,45.588 568.926,58.521L568.926,61.291L546.172,61.291L546.172,42.817C546.172,38.689 545.064,35.622 542.791,33.441C540.475,31.227 537.908,30.15 534.943,30.15C531.472,30.15 528.708,31.384 526.498,33.924C524.19,36.576 523.068,39.747 523.068,43.616L523.068,70.143L591.774,68.302L591.774,42.817Z" style="fill:rgb(102,255,0);fill-rule:nonzero;"/>
                <path d="M663.319,43.083C663.319,38.875 662.193,35.769 659.883,33.589C657.527,31.364 654.931,30.284 651.958,30.284C648.39,30.284 645.584,31.5 643.375,34.004C641.076,36.609 639.956,39.752 639.956,43.616L639.956,67.012L663.319,66.386L663.319,43.083Z" style="fill:rgb(102,255,0);fill-rule:nonzero;"/>
                <path d="M605.019,100.307C605.019,104.448 605.909,107.929 607.662,110.65C609.555,113.595 612.04,114.97 615.481,114.97C621.248,114.97 627.867,113.331 627.867,100.572L627.867,76.05L605.019,75.43L605.019,100.307Z" style="fill:rgb(102,255,0);fill-rule:nonzero;"/>
                <path d="M523.068,100.572C523.068,104.594 524.159,107.957 526.409,110.855C528.483,113.533 531.189,114.837 534.685,114.837C537.222,114.837 539.494,114.1 541.457,112.63C544.628,110.146 546.172,106.376 546.172,101.105L546.172,83.563L568.926,83.563L568.926,103.633C568.926,106.803 569.985,109.406 572.167,111.592C574.369,113.806 576.826,114.837 579.901,114.837C583.866,114.837 586.807,113.411 588.912,110.462C590.811,107.661 591.774,103.887 591.774,99.242L591.774,75.07L523.068,73.205L523.068,100.572Z" style="fill:rgb(102,255,0);fill-rule:nonzero;"/>
                <path d="M639.956,101.105C639.956,105.288 640.976,108.597 643.075,111.219C645.021,113.652 647.758,114.837 651.443,114.837C654.654,114.837 657.376,113.684 659.772,111.314C662.157,108.949 663.319,105.784 663.319,101.637L663.319,77.914L688.856,111.151C690.716,113.631 693.101,114.837 696.145,114.837C699.332,114.837 702.176,113.691 704.846,111.336C707.414,109.071 708.662,106.422 708.662,103.233C708.662,100.733 707.71,98.278 705.761,95.731L692.094,77.794L639.956,76.378L639.956,101.105Z" style="fill:rgb(102,255,0);fill-rule:nonzero;"/>
                <path d="M703.346,48.337C704.76,46.208 705.451,44.141 705.451,42.019C705.451,38.854 704.264,36.288 701.718,33.944C699.14,31.57 696.353,30.417 693.192,30.417C689.327,30.417 686.388,32.218 683.954,36.075L664.306,66.36L691.989,65.618L703.346,48.337Z" style="fill:rgb(102,255,0);fill-rule:nonzero;"/>
                <path d="M664.306,66.36L663.319,66.386L663.319,67.881L664.306,66.36Z" style="fill:rgb(91,186,71);fill-rule:nonzero;"/>
                <path d="M44.266,115.702C19.857,115.702 0,95.845 0,71.436C0,47.028 19.857,27.17 44.266,27.17C58.586,27.17 72.089,34.157 80.387,45.86C83.939,50.868 82.757,57.806 77.75,61.356C72.741,64.908 65.804,63.727 62.253,58.719C58.116,52.884 51.392,49.401 44.266,49.401C32.115,49.401 22.23,59.286 22.23,71.436C22.23,83.588 32.115,93.473 44.266,93.473C51.392,93.473 58.116,89.989 62.253,84.155C65.803,79.145 72.741,77.964 77.748,81.515C82.756,85.065 83.939,92.003 80.388,97.011C72.09,108.715 58.587,115.702 44.266,115.702Z" style="fill:rgb(0,204,255);fill-rule:nonzero;"/>
                <path d="M475.839,115.702C451.431,115.702 431.575,95.845 431.575,71.436C431.575,47.028 451.431,27.17 475.839,27.17C490.161,27.17 503.664,34.157 511.962,45.86C515.512,50.868 514.331,57.806 509.323,61.356C504.315,64.908 497.378,63.727 493.829,58.719C489.692,52.884 482.965,49.401 475.839,49.401C463.689,49.401 453.804,59.286 453.804,71.436C453.804,83.588 463.689,93.473 475.839,93.473C482.965,93.473 489.692,89.989 493.826,84.155C497.378,79.145 504.315,77.964 509.323,81.515C514.331,85.065 515.512,92.003 511.962,97.011C503.664,108.715 490.161,115.702 475.839,115.702Z" style="fill:rgb(102,255,0);fill-rule:nonzero;"/>
            </g>
            <g transform="matrix(0.261692,0,0,0.261692,375.382,25.2704)">
                <path d="M269.887,184.045C270.012,184.332 269.828,184.43 269.955,184.713C271.337,183.997 272.543,183.501 272.874,183.56C272.756,183.264 272.484,183.001 272.366,182.722C271.204,182.913 270.681,183.371 269.887,184.045Z" style="fill:rgb(0,176,233);"/>
                <path d="M370.04,198.323L370.085,198.323C370.552,198.323 370.863,198.529 371.067,198.815C371.705,199.286 372.112,200.016 372.174,201.103L372.174,205.636C372.069,206.617 371.747,207.463 371.196,208.093C371.028,208.434 370.766,208.712 370.347,208.786C369.967,209.006 369.517,209.169 369.018,209.263L368.939,209.273L368.853,209.273C347.882,210.258 326.834,210.42 305.854,209.151C305.638,209.721 305.293,210.225 304.743,210.63C304.346,210.912 303.933,211.076 303.521,211.32L303.461,211.354L303.402,211.381C302.187,211.929 300.785,212.272 299.476,212.532C297.753,212.876 295.987,213.094 294.23,213.267C289.992,213.683 285.666,213.802 281.406,213.793C276.64,213.793 271.799,213.633 267.041,213.208C265.241,213.052 263.414,212.851 261.618,212.543C260.561,212.362 259.156,212.105 258.178,211.637C256.531,210.903 255.116,209.963 254.791,208.051L254.775,208.01L254.775,207.962C254.652,206.612 254.535,205.236 254.512,203.882C254.498,202.805 254.527,201.561 254.814,200.523L254.83,200.475L254.851,200.421C255.396,199.025 256.342,198.261 257.51,198.272C258.64,194.452 260.794,191.065 263.729,188.414L264.916,186.729C266.754,184.148 269.372,182.172 272.25,180.873C272.628,180.698 273.022,180.534 273.413,180.385L273.442,180.292C273.734,179.179 274.211,178.149 274.83,177.193C274.065,176.608 273.115,175.115 272.828,174.319C272.158,172.617 272.168,169.274 272.202,167.464C272.262,163.983 272.616,160.431 273.189,157.001C273.526,154.931 273.969,152.852 274.544,150.838C274.564,150.735 274.596,150.63 274.631,150.537L274.865,149.737L275.015,149.768L275.174,149.454L276.133,149.832C277.045,148.437 278.251,147.491 279.669,146.949L280.121,138.17C280.111,137.154 280.089,135.667 280.044,134.659C277.863,134.362 276.419,134.961 275.785,132.727C275.58,132.005 275.77,129.703 275.542,128.562C275.13,126.49 274.603,124.453 274.272,122.356C273.882,119.861 273.734,117.209 274.492,114.759C275.53,111.427 277.962,109.308 281.12,107.993L281.157,107.974L281.191,107.964C281.399,107.898 281.598,107.831 281.812,107.769C282.188,106.51 284.115,105.689 285.211,105.23C286.754,104.596 288.368,104.057 289.969,103.56L287.547,99.812C282.768,99.216 278.073,97.931 273.867,95.961L272.012,95.097L273.695,93.945C276.016,92.364 276.93,90.135 276.955,87.415C276.117,87.497 275.219,87.511 274.219,87.504L274.148,87.503L274.072,87.497C271.979,87.225 270.012,86.259 268.499,84.77C265.396,81.707 264.87,77.308 266.754,73.427L266.789,73.367L266.827,73.305C267.062,72.949 267.329,72.617 267.629,72.313C268.679,71.256 270.026,70.615 271.456,70.282C271.283,69.161 272.521,68.234 273.292,67.618C273.404,67.529 273.52,67.44 273.638,67.346C273.594,67.346 273.581,67.342 273.548,67.341C272.461,67.151 271.124,66.92 270.781,65.663C268.666,57.646 268.609,48.748 273.526,41.705C276.677,37.216 281.288,34.309 286.47,32.655L286.535,32.636L286.6,32.619C310.891,28.065 337.225,50.13 330.524,75.732L330.52,75.759L330.503,75.78C327.753,84.673 322.044,91.55 313.741,95.761C309.695,97.815 305.278,99.105 300.79,99.741C300.777,99.748 300.761,99.748 300.745,99.748L302.308,101.613L302.586,101.569C303.689,101.397 304.772,101.233 305.883,101.118C306.973,101.004 308.596,100.85 309.959,101.106L314.277,99.665C314.864,99.417 315.46,99.123 316.054,98.845C316.889,98.445 317.736,98.046 318.592,97.678C320.174,96.986 323.313,95.628 324.966,96.583L324.971,96.593L324.986,96.602C325.465,96.894 325.916,97.232 326.343,97.61L326.606,97.551C329.63,96.818 332.631,95.942 335.561,94.86L335.589,94.849L335.634,94.842C335.803,94.788 335.964,94.752 336.125,94.732C336.053,93.346 336.501,91.62 337.313,90.761C337.727,90.283 338.179,89.926 338.693,89.553C339.707,88.81 340.135,88.293 340.62,87.125C340.982,85.016 340.982,82.587 340.974,80.446L340.974,80.398C341.026,79.109 341.586,77.962 342.774,77.366C343.85,76.816 345.22,76.877 346.308,77.366C347.53,77.908 348.507,78.712 349.182,79.874C350.015,81.29 350.236,82.983 350.211,84.601C351.119,83.591 352.164,82.69 353.292,82.241C354.092,81.875 354.991,81.842 355.832,82.148C357.704,82.833 359.035,85.171 358.172,87.077L358.164,87.094L358.153,87.111C357.235,88.993 356.082,90.033 354.48,91.302C353.973,91.707 353.467,92.105 352.999,92.562L353.113,92.705C353.125,92.731 353.159,92.753 353.165,92.779C354.948,91.325 356.632,90.387 359.076,90.128L359.1,90.123L359.13,90.118C360.676,90.028 362.12,90.571 362.847,92.007C363.521,93.349 363.405,95.412 362.425,96.572L362.395,96.613L362.351,96.662C360.564,98.393 358.278,98.983 355.904,99.332L355.904,99.435C357.704,99.686 359.561,99.655 361.272,100.388L361.344,100.418L361.404,100.458C362.805,101.281 363.574,102.886 363.185,104.488C362.858,105.886 361.749,106.83 360.36,107.123C357.848,107.633 355.329,106.779 352.973,105.98L352.905,105.956C352.575,106.211 352.215,106.445 351.832,106.651L351.819,106.664L351.805,106.671C350.036,107.533 348.022,108.151 346.063,108.253C344.88,108.316 343.785,108.187 342.801,107.864L342.307,108.028C338.529,109.298 335.234,111.327 332.005,113.622C331.907,114.94 331.644,116.209 331.174,117.329C331.057,117.613 330.887,117.88 330.672,118.106C329.731,119.13 328.168,119.287 326.854,119.321C326.406,119.34 324.65,119.307 324.259,119.45C324.062,119.614 323.869,119.771 323.655,119.905C327.128,128.065 329.249,136.958 330.574,145.687L330.696,146.54L329.918,146.908C328.255,147.709 326.563,148.481 324.842,149.228L324.494,149.84C323.863,150.96 323.103,152.001 322.221,152.947C321.605,153.632 321.029,155.009 320.694,155.855C320.074,157.424 319.574,159.081 319.203,160.731C318.771,162.672 318.397,165.087 318.619,167.072C318.647,167.206 318.661,167.343 318.786,167.418C318.905,167.481 319.041,167.528 319.163,167.58C319.401,167.669 319.639,167.766 319.862,167.898C320.819,168.42 321.514,169.244 321.568,170.375C321.598,171.224 321.244,172.017 320.819,172.724C321.076,173.005 321.853,173.443 322.083,173.58C322.665,173.919 323.293,174.276 323.78,174.748C324.223,174.72 324.665,174.767 325.113,174.864C325.406,174.924 325.689,175.01 325.982,175.097C326.134,175.145 326.319,175.198 326.474,175.218L326.569,175.228L326.667,175.244C327.128,175.371 327.698,175.311 328.181,175.341L328.238,175.345L328.29,175.352C329.482,175.541 330.232,176.477 330.35,177.509L330.644,177.49C331.167,177.454 331.699,177.423 332.218,177.396C334.352,177.284 336.486,177.225 338.614,177.264C340.355,177.287 342.152,177.37 343.88,177.61C349.722,178.013 355.517,179.777 360.299,183.232C364.433,186.22 367.635,190.383 369.011,195.345C369.277,196.288 369.465,197.246 369.577,198.211C369.737,198.251 369.895,198.282 370.04,198.323Z"/>
                <path d="M305.204,199.353L305.846,207.984C307.465,208.077 309.087,208.17 310.702,208.251C311.233,208.278 311.71,207.829 311.753,207.139C311.906,204.363 311.695,202.652 311.568,201.053C311.509,200.429 311.129,199.682 310.599,199.658C308.796,199.564 306.998,199.46 305.204,199.353Z" style="fill:rgb(254,245,136);"/>
                <path d="M326.879,98.678C330.262,97.858 333.277,96.944 335.964,95.955C336.924,95.679 337.614,96.215 338.039,97.577C337.968,96.538 337.766,96.233 337.426,95.421C337.061,94.419 337.426,92.318 338.171,91.54C339.364,90.174 340.62,90.247 341.746,87.455C342.056,85.688 342.163,83.251 342.136,80.442C342.225,78.081 344.438,77.799 345.835,78.428C347.647,79.232 349.208,80.881 349.031,84.914C348.971,86.355 348.756,86.983 347.972,88.166C347.729,88.572 347.6,89.106 348.171,89.335C352.626,91.866 352.662,95.221 349.661,99.004C351.805,97.232 352.487,95.364 352.193,93.425C356.425,98.867 354.885,103.681 351.286,105.622C350.384,106.057 342.152,110.077 339.073,102.703C339.245,104.596 340.041,106.074 341.937,106.925C337.92,108.274 334.535,110.397 331.292,112.706C331.771,106.91 330.381,102.044 326.879,98.678Z" style="fill:rgb(249,189,157);"/>
                <path d="M276.693,202.177C283.563,202.387 290.626,201.926 296.65,200.748C298.552,200.925 298.278,203.038 297.938,207.308C297.974,210.557 298.482,211.464 297.678,211.664C292.057,212.543 283.945,212.768 276.514,212.566C275.397,212.418 275.405,211.889 275.286,210.713C275.174,208.77 275.469,205.765 275.603,203.468C275.832,202.919 275.971,202.198 276.693,202.177Z" style="fill:rgb(254,245,136);"/>
                <path d="M258.596,198.698C270.877,203.16 293.892,202.031 303.448,198.442C301.388,191.409 292.2,183.339 280.537,183.382C268.563,183.629 260.963,190.53 258.596,198.698Z" style="fill:rgb(91,186,71);"/>
                <path d="M319.528,207.793C319.559,208.777 319.882,208.629 320.649,208.664C335.388,209.309 349.62,208.963 364.175,208.325C364.502,208.237 364.457,207.896 364.508,207.509C364.594,204.613 364.272,201.826 364.34,200.178C364.34,199.662 363.707,199.539 363.618,199.544C349.177,200.32 334.744,200.501 320.317,200.046C319.647,200.031 319.604,200.611 319.501,201.122C319.238,202.683 319.455,207.01 319.528,207.793Z" style="fill:rgb(254,245,136);"/>
                <path d="M304.419,198.316L305.001,198.898C325.936,199.891 347.035,200.148 368.488,198.898C367.584,189.219 359.154,180.947 346.659,179.086C346.314,179.034 342.152,181.614 341.93,182.97C341.339,183.362 340.703,183.523 340.563,183.51C340.878,181.286 344.247,178.807 343.752,178.776C340.627,178.32 335.553,178.32 330.727,178.654C327.67,180.643 324.334,183.44 320.126,185.915C318.719,186.933 317.771,186.653 315.523,188.773C313.174,190.782 311.173,194.681 304.419,198.316Z" style="fill:rgb(91,186,71);"/>
                <path d="M297.377,128.931C295.642,113.378 289.919,106.211 281.577,109.064C269.411,114.136 278.458,127.816 276.906,133.06C281.951,128.046 290.927,126.191 297.377,128.931Z" style="fill:rgb(254,245,136);"/>
                <path d="M295.495,105.036L291.494,104.314C287.085,105.647 283.201,107.036 282.922,108.118C289.595,106.673 294.103,111.31 296.709,121.271C298.453,129.209 299.216,130.387 293.988,131.564L293.192,136.383C292.539,140.407 291.891,144.436 291.236,148.459C295.045,149.609 293.872,152.247 295.392,154.065C303.646,155.021 313.999,153.233 329.417,145.866C327.738,134.768 325.135,126.089 322.133,119.329C321.743,118.028 320.462,115.056 320.597,115C320.729,114.943 322.083,119.218 322.929,118.99C323.155,118.844 323.364,118.686 323.577,118.514C324.644,117.69 329.225,118.94 330.102,116.88C332.33,111.592 329.586,100.782 324.378,97.595C322.666,96.602 316.733,99.91 314.672,100.76L311.413,101.843C315.602,105.758 316.867,108.575 317.852,111.211C315.549,107.582 313.174,104.812 310.936,102.727C309.678,101.624 305.303,102.325 302.77,102.727C309.465,107.297 300.114,106.235 295.495,105.036Z" style="fill:rgb(254,245,136);"/>
                <path d="M274.564,180.593C274.861,179.49 275.373,178.389 276.183,177.284C277.374,178 279.344,178.704 282.091,179.427C278.89,179.467 276.381,179.86 274.564,180.593ZM303.389,195.843C303.724,196.815 304.588,197.014 305.978,196.425C312.255,192.662 312.819,190.458 316.238,187.475C320.391,184.574 318.964,187.134 328.82,178.704C329.621,177.845 329.058,176.649 328.104,176.501C327.401,176.461 327.013,176.547 326.355,176.378C325.538,176.285 324.259,175.549 323.112,176.111C316.661,179.227 314.955,181.565 311.106,184.158C308.166,186.002 304.706,188.297 299.553,188.512C301.246,191.102 302.726,193.604 303.389,195.843ZM323.489,149.262C322.883,150.318 322.175,151.284 321.362,152.165C319.543,154.188 316.912,162.5 317.47,167.228C317.667,168.58 318.625,168.506 319.287,168.902C321.045,169.854 320.347,171.29 319.741,172.254C318.94,173.728 321.867,174.498 322.985,175.599C315.371,179.398 314.261,181.214 311.076,183.551C306.406,186.825 303.192,187.841 299.348,188.032C297.965,188.032 298.157,185.559 298.769,184.618C300.83,181.402 301.566,180.821 302.77,179.322C303.095,178.94 303.375,178.247 302.931,178.126L300.721,177.733C300.358,177.637 300.136,177.306 300.99,177.232C301.614,177.216 302.293,177.024 302.802,176.83C303.324,176.582 303.423,175.627 303.155,175.399C302.835,175.151 302.342,175.097 302.034,174.849C303.263,171.628 304.558,167.813 305.781,163.196C306.168,161.885 306.919,160.96 308.796,160.445C312.652,159.356 315.777,157.745 318.243,155.28C315.234,157.581 311.827,159.401 307.606,160.147C306.315,160.407 305.631,161.564 305.257,163.07C304.205,167.012 302.859,170.894 301.373,174.748C301.122,175.182 303.049,175.388 302.874,176.004C302.271,177.37 300.491,176.153 299.666,177.38C298.834,178.648 304.038,177.637 301.765,179.547C300.181,180.908 298.925,182.614 297.739,184.356C297.459,184.702 297.34,185.265 297.407,186.044C294.267,182.913 290.486,180.693 285.794,179.814C286.665,174.842 289.064,168.489 292.744,161.946C295.002,165.237 299.417,167.264 302.909,164.111C303.675,163.43 304.221,162.376 304.178,161.332C304.117,160.216 303.418,159.406 302.453,158.921L302.443,158.911L302.416,158.911C300.417,158.03 298.152,157.011 296.335,155.779C295.983,155.406 295.708,155.069 295.491,154.739C296.958,154.861 298.444,154.918 299.966,154.918C308.972,154.918 317.212,152.784 323.489,149.262ZM275.734,150.93C273.228,159.522 272.861,171.224 273.91,173.907C274.263,174.875 275.308,176.15 275.603,176.309C279.597,178.32 283.034,179.536 285.467,179.292C286.515,174.157 288.199,168.534 292.124,162.235C292.315,161.838 291.617,161.554 291.478,161.554C283.188,160.751 274.956,152.426 275.734,150.93ZM265.864,187.408C279.737,178.561 294.509,183.371 302.145,194.349C298.747,186.432 292.979,181.006 283,180.005C275.271,179.748 269.05,182.932 265.864,187.408Z" style="fill:rgb(0,192,243);"/>
                <path d="M291.043,146.288C290.999,146.72 290.971,147.144 290.944,147.556C290.813,148.541 289.639,148.889 288.219,148.721C289.196,149.08 289.556,149.018 290.435,149.041C291.5,149.122 293.266,150.314 293.677,151.315C294.427,152.951 293.855,154.074 295.937,156.241C297.425,157.257 299.609,158.339 302.181,159.464C304.292,160.51 303.646,162.642 302.503,163.665C301.203,164.838 299.284,165.756 296.466,164.509C294.607,163.683 293.915,162.733 292.845,161.032C292.576,160.643 291.875,160.604 291.597,161.334C283.774,159.744 278.411,154.385 276.91,150.777C277.994,148.947 279.868,147.486 283.114,147.58C282.326,147.299 281.57,147.173 280.833,147.226L281.284,138.191C281.268,136.029 281.166,133.797 281.01,131.523C284.239,128.598 289.567,127.537 293.598,128.789C292.75,134.626 291.904,140.457 291.053,146.294L291.043,146.288Z" style="fill:rgb(249,189,157);"/>
                <path d="M274.047,172.662C274.295,172.485 274.4,172.086 274.656,171.917C275.436,173.273 276.19,174.356 276.491,174.479C276.239,174.654 275.857,174.726 275.609,174.903C274.731,174.103 274.339,173.652 274.047,172.662Z" style="fill:rgb(0,176,233);"/>
                <path d="M276.793,175.86C276.903,175.569 276.777,175.191 276.88,174.903C278.294,175.591 279.512,176.061 279.83,176.001C279.719,176.288 279.456,176.554 279.346,176.847C278.176,176.669 277.594,176.518 276.793,175.86Z" style="fill:rgb(0,176,233);"/>
                <path d="M280.816,177.388C280.875,177.082 280.704,176.725 280.778,176.427C282.258,176.902 283.528,177.194 283.847,177.082C283.774,177.393 283.546,177.692 283.479,177.994C282.3,177.989 281.707,177.928 280.816,177.388Z" style="fill:rgb(0,176,233);"/>
                <path d="M275.679,156.688C275.859,156.414 275.809,155.993 276,155.714C277.286,156.755 278.45,157.526 278.796,157.531C278.62,157.812 278.275,158.025 278.083,158.303C276.928,157.855 276.353,157.553 275.679,156.688Z" style="fill:rgb(0,176,233);"/>
                <path d="M279.695,159.325C279.846,159.026 279.758,158.594 279.912,158.294C281.351,159.203 282.618,159.865 282.973,159.841C282.818,160.141 282.504,160.395 282.337,160.695C281.101,160.371 280.485,160.133 279.695,159.325Z" style="fill:rgb(0,176,233);"/>
                <path d="M284.221,161.722C284.341,161.433 284.23,161.053 284.345,160.766C285.722,161.494 286.937,162.008 287.258,161.957C287.136,162.248 286.855,162.51 286.731,162.791C285.575,162.585 285.004,162.411 284.221,161.722Z" style="fill:rgb(0,176,233);"/>
                <path d="M287.5,165.079C287.79,165.189 287.99,165.542 288.267,165.65C288.711,164.157 289.179,162.929 289.437,162.731C289.151,162.619 288.775,162.642 288.482,162.528C287.825,163.51 287.544,164.046 287.5,165.079Z" style="fill:rgb(0,176,233);"/>
                <path d="M285.901,168.858C286.194,168.968 286.384,169.321 286.673,169.433C287.107,167.933 287.579,166.701 287.843,166.511C287.556,166.401 287.169,166.424 286.885,166.305C286.221,167.28 285.957,167.813 285.901,168.858Z" style="fill:rgb(0,176,233);"/>
                <path d="M284.552,172.377C284.849,172.485 285.039,172.84 285.327,172.948C285.76,171.449 286.241,170.223 286.5,170.028C286.21,169.912 285.833,169.939 285.541,169.82C284.886,170.804 284.603,171.337 284.552,172.377Z" style="fill:rgb(0,176,233);"/>
                <path d="M283.317,176.045C283.603,176.159 283.805,176.514 284.089,176.62C284.525,175.128 284.997,173.899 285.253,173.702C284.971,173.589 284.588,173.609 284.296,173.498C283.649,174.479 283.362,175.01 283.317,176.045Z" style="fill:rgb(0,176,233);"/>
                <path d="M307.24,194.64C307.083,194.379 307.141,193.977 306.979,193.713C305.729,194.653 304.609,195.345 304.28,195.345C304.448,195.605 304.763,195.814 304.926,196.081C306.028,195.693 306.58,195.433 307.24,194.64Z" style="fill:rgb(0,176,233);"/>
                <path d="M310.79,191.739C310.577,191.508 310.555,191.105 310.34,190.877C309.294,192.033 308.33,192.927 308.007,192.986C308.22,193.217 308.572,193.361 308.789,193.594C309.794,193.002 310.29,192.643 310.79,191.739Z" style="fill:rgb(0,176,233);"/>
                <path d="M313.947,188.398C313.735,188.172 313.711,187.77 313.502,187.541C312.457,188.7 311.499,189.593 311.173,189.651C311.385,189.883 311.73,190.034 311.937,190.26C312.951,189.665 313.445,189.309 313.947,188.398Z" style="fill:rgb(0,176,233);"/>
                <path d="M316.218,184.616C316.431,184.838 316.835,184.879 317.05,185.106C315.835,186.091 314.895,186.998 314.822,187.319C314.601,187.095 314.468,186.739 314.257,186.517C314.895,185.531 315.284,185.065 316.218,184.616Z" style="fill:rgb(0,176,233);"/>
                <path d="M321.058,183.371C320.914,183.102 320.985,182.707 320.83,182.439C319.543,183.329 318.403,183.973 318.07,183.959C318.227,184.228 318.537,184.452 318.689,184.713C319.808,184.375 320.368,184.139 321.058,183.371Z" style="fill:rgb(0,176,233);"/>
                <path d="M324.738,181.25C324.582,180.978 324.665,180.584 324.502,180.31C323.223,181.2 322.083,181.852 321.75,181.831C321.903,182.101 322.208,182.33 322.362,182.595C323.489,182.255 324.044,182.023 324.738,181.25Z" style="fill:rgb(0,176,233);"/>
                <path d="M327.829,178.344C327.624,178.119 327.601,177.72 327.393,177.49C326.343,178.654 325.376,179.542 325.054,179.613C325.261,179.829 325.613,179.977 325.823,180.211C326.841,179.615 327.336,179.26 327.829,178.344Z" style="fill:rgb(0,176,233);"/>
                <path d="M295.01,185.545C294.825,185.797 294.438,185.903 294.26,186.154C295.606,186.947 296.672,187.707 296.797,188.007C296.978,187.757 297.062,187.376 297.239,187.134C296.443,186.247 295.995,185.844 295.01,185.545Z" style="fill:rgb(0,176,233);"/>
                <path d="M291.434,183.219C291.272,183.479 290.889,183.613 290.735,183.875C292.124,184.574 293.25,185.251 293.39,185.548C293.562,185.287 293.605,184.904 293.77,184.641C292.927,183.827 292.449,183.457 291.434,183.219Z" style="fill:rgb(0,176,233);"/>
                <path d="M286.826,181.752C286.763,182.048 286.424,182.287 286.348,182.586C287.897,182.836 289.162,183.168 289.388,183.401C289.468,183.102 289.404,182.728 289.477,182.43C288.424,181.891 287.866,181.674 286.826,181.752Z" style="fill:rgb(0,176,233);"/>
                <path d="M282.339,181.028C282.319,181.327 282.032,181.614 282.003,181.932C283.563,181.935 284.873,182.048 285.131,182.255C285.158,181.948 285.047,181.588 285.063,181.283C283.945,180.908 283.358,180.792 282.339,181.028Z" style="fill:rgb(0,176,233);"/>
                <path d="M277.61,181.402C277.645,181.711 277.42,182.043 277.45,182.351C278.979,182.064 280.288,181.935 280.583,182.079C280.552,181.771 280.362,181.439 280.334,181.133C279.162,180.989 278.563,180.978 277.61,181.402Z" style="fill:rgb(0,176,233);"/>
                <path d="M273.499,182.123C273.564,182.43 273.373,182.784 273.431,183.091C274.931,182.648 276.213,182.397 276.531,182.51C276.462,182.205 276.244,181.893 276.183,181.597C275.005,181.565 274.405,181.614 273.499,182.123Z" style="fill:rgb(0,176,233);"/>
                <path d="M269.429,201.693C270.712,201.826 272.022,201.935 273.335,202.015C274.293,202.081 274.882,202.993 274.781,204.186L274.906,210.339C274.909,211.869 274.528,212.501 273.675,212.465C272.173,212.398 270.725,212.315 269.356,212.222C269,212.166 268.166,211.39 268.108,210.095C267.372,207.938 267.99,205.146 268.13,202.838C268.305,202.473 268.599,201.759 269.429,201.693Z" style="fill:rgb(254,245,136);"/>
                <path d="M300.034,199.98C300.857,199.759 301.653,199.53 302.41,199.283C303.758,198.591 304.772,199.375 305.001,200.839C305.251,203.056 305.184,205.334 305.001,207.641C304.778,209.679 303.937,209.721 302.931,210.316C302.41,210.552 301.788,210.763 301.093,210.957C297.596,211.675 298.731,206.806 298.599,205.543C298.648,202.777 297.98,201.077 300.034,199.98Z" style="fill:rgb(254,245,136);"/>
                <path d="M340.325,182.403C341.746,182.403 342.9,183.56 342.9,184.98C342.9,186.385 341.746,187.533 340.325,187.533C338.915,187.533 337.759,186.385 337.759,184.98C337.759,183.56 338.915,182.403 340.325,182.403Z" style="fill:rgb(20,8,15);"/>
                <path d="M314.844,208.444C315.887,208.503 316.948,208.542 317.992,208.589C318.397,208.611 318.803,208.338 318.889,207.713C318.823,203.656 318.905,202.56 318.403,200.429C318.174,199.907 317.116,199.94 316.72,199.926C315.578,199.881 314.431,199.833 313.289,199.78C312.79,199.818 312.181,200.231 312.174,200.864C312.156,202.896 312.011,205.334 312.945,207.532C313.226,208.201 314.069,208.4 314.844,208.444Z" style="fill:rgb(254,245,136);"/>
                <path d="M365.259,207.613C365.29,208.034 365.797,208.251 366.159,208.237C367.04,208.195 367.921,208.155 368.805,208.112C370.165,207.868 370.863,206.969 371.013,205.517L371.013,201.168C370.945,200.023 370.364,199.197 368.093,199.283C367.303,199.328 366.515,199.384 365.722,199.43C365.425,199.444 365.038,199.749 364.932,200.382C364.826,203.877 365.098,206.104 365.259,207.613Z" style="fill:rgb(254,245,136);"/>
                <path d="M355.115,98.261C354.738,96.737 354.169,95.319 353.363,94.14C354.691,92.99 356.381,91.583 359.198,91.284C362.647,91.072 362.447,94.732 361.542,95.83C359.872,97.44 357.667,97.931 355.115,98.261Z" style="fill:rgb(249,189,157);"/>
                <path d="M353.338,104.871C356.039,105.791 358.077,106.394 360.129,105.98C362.535,105.479 362.766,102.606 360.809,101.455C359.173,100.76 357.085,100.83 355.229,100.517C355.253,102.058 354.614,103.505 353.338,104.871Z" style="fill:rgb(249,189,157);"/>
                <path d="M351.981,91.932C353.693,90.154 355.725,89.416 357.116,86.596C357.873,84.919 355.832,82.357 353.736,83.312C352.289,83.886 350.735,85.537 349.119,87.931C348.722,88.527 348.777,89.025 349.448,89.433C350.47,90.168 351.397,90.932 351.981,91.932Z" style="fill:rgb(249,189,157);"/>
                <path d="M289.015,99.932L299.313,99.847L302.41,103.55C303.292,105.437 301.07,105.107 300.01,105.107L291.727,104.131L289.015,99.932Z" style="fill:rgb(249,189,157);"/>
                <path d="M274.358,94.91C291.77,103.058 321.626,100.483 329.393,75.43C335.883,50.628 310.222,29.374 286.822,33.769C273.404,38.051 267.777,49.726 271.916,65.366C272.202,66.458 275.286,65.899 275.563,67.062C275.706,67.671 270.504,70.413 273.581,70.505C276.419,70.656 278.698,71.437 280.334,72.974C275.896,70.353 270.026,70.545 267.798,73.947C264.884,79.957 268.906,85.643 274.226,86.34C277.654,86.355 279.321,86.016 281.619,84.847C281.142,85.752 280.164,86.521 278.125,86.989C278.2,90.738 276.795,93.247 274.358,94.91Z" style="fill:rgb(249,189,157);"/>
                <path d="M276.293,49.917C279.826,50.19 282.812,52.121 285.237,55.697C285.237,55.697 285.101,48.548 278.905,46.065C285.38,44.133 291.573,50.611 291.573,50.611C290.175,45.991 287.51,43.655 284.285,42.342C298.488,37.068 315.33,54.574 327.408,36.838C335.336,25.191 324.688,0.96 310.428,0.96C309.111,0.96 307.964,1.394 306.998,2.264C306.023,3.135 305.535,4.264 305.535,5.653C305.535,6.629 305.919,7.353 306.687,7.838C307.449,8.325 308.245,8.568 309.083,8.568C309.708,8.568 310.222,8.41 310.651,8.103C311.063,7.787 311.413,7.443 311.695,7.057C311.965,6.677 312.211,6.326 312.413,6.02C312.63,5.701 312.865,5.546 313.144,5.546C313.702,5.546 314.094,5.776 314.292,6.225C314.504,6.677 314.672,7.04 314.672,7.454L314.702,7.558C315.726,20.855 306.67,26.215 289.096,24.857C276.183,24.019 267.127,29.093 263.96,35.915C263.333,34.149 262.941,31.815 262.819,28.867C260.995,32.706 260.359,36.067 260.64,38.92C258.422,38.203 255.733,37.898 252.549,38.12C254.954,39.184 256.823,40.264 258.199,41.354C256.354,41.873 254.375,42.751 252.284,44.043C255.33,43.847 257.75,43.989 259.596,44.454C255.163,47.245 252.741,53.071 252.756,63.667C252.984,90.033 270.694,92.458 269.134,119.023C270.667,113.963 272.041,108.977 272.38,104.51C273.353,106.529 273.442,109.547 273.309,113.566C275.02,109.506 276.016,105.203 275.953,100.552C277.507,101.374 278.804,103.118 279.826,105.791C280.5,102.618 279.582,101.952 279.374,99.665C282.504,100.291 283.716,99.735 285.968,99.115C280.511,96.332 278.875,94.159 277.664,91.082L285.521,93.004L277.664,86.263C262.281,89.829 262.606,66.727 277.184,70.898C279.967,71.882 282.693,73.023 284.136,80.203C285.131,66.521 271.305,62.389 276.293,49.917Z"/>
                <path d="M321.892,44.711C332.889,42.96 340.297,34.043 333.23,19.588C333,26.916 331.36,31.065 328.578,32.559L318.889,42.115C319.882,42.977 320.888,43.847 321.892,44.711Z"/>
                <path d="M295.226,82.745C295.884,81.285 296.773,79.962 298.314,79.462C298.975,79.264 299.584,79.6 298.989,80.136C298.79,80.316 298.314,80.456 297.894,80.692C304.419,86.927 313.687,87.596 318.689,82.059L318.81,82.317C313.651,88.374 304.546,87.419 296.905,81.354C296.414,81.621 295.871,82.079 295.226,82.745Z"/>
                <path d="M308.75,88.835C307.353,88.784 306.528,88.796 305.69,88.137C305.08,87.553 304.419,87.984 304.736,88.418C305.045,88.843 306.939,89.064 308.75,88.835Z"/>
                <path d="M303.631,54.538C294.915,58.217 298.85,74.161 303.763,75.111C302.749,75.316 301.13,75.363 299.084,75.31C302.636,76.131 306.374,75.675 308.37,73.362C308.668,73.014 308.717,72.817 308.495,72.777C308.046,73.177 307.427,73.705 306.634,74.108C311.15,67.408 306.807,53.738 301.614,56.551C301.823,55.955 302.6,55.268 303.631,54.538Z"/>
                <path d="M303.155,56.875C305.483,56.716 307.676,60.569 308.053,65.474C308.428,70.385 306.84,74.495 304.523,74.649C303.159,74.744 301.852,73.48 300.922,71.448C301.491,72.116 302.145,72.477 302.749,72.382C304.022,72.176 304.629,70.056 304.11,67.65C303.588,65.242 302.145,63.454 300.873,63.661C300.276,63.754 299.82,64.284 299.571,65.063C299.461,60.605 300.985,57.027 303.155,56.875Z" style="fill:white;"/>
                <path d="M316.284,53.436C312.219,56.525 315.46,68.71 319.882,69.854C319.618,69.911 319,69.95 318.302,69.98C318.138,69.996 318.197,70.247 318.436,70.313C320.462,70.712 322.453,69.669 324.398,67.647C323.055,68.578 321.875,69.295 321.053,69.533C323.305,64.836 318.75,54.125 315.504,55.25C315.493,54.851 315.783,54.216 316.284,53.436Z"/>
                <path d="M315.922,56.097C317.197,55.516 319.258,58.038 320.498,61.732C321.743,65.429 321.72,68.9 320.431,69.486C319.765,69.797 318.869,69.242 317.999,68.112C318.243,68.234 318.476,68.285 318.705,68.238C319.765,68.066 320.174,66.104 319.618,63.854C319.051,61.603 317.751,59.916 316.681,60.091C315.9,60.222 315.484,61.303 315.523,62.759C314.624,59.493 314.77,56.624 315.922,56.097Z" style="fill:white;"/>
                <path d="M300.615,66.479C301.203,66.479 301.684,67.062 301.684,67.775C301.684,68.496 301.203,69.079 300.615,69.079C300.021,69.079 299.542,68.496 299.542,67.775C299.542,67.062 300.021,66.479 300.615,66.479Z" style="fill:white;"/>
                <path d="M316.624,62.912C317.082,62.912 317.446,63.364 317.446,63.914C317.446,64.471 317.082,64.918 316.624,64.918C316.168,64.918 315.792,64.471 315.792,63.914C315.792,63.364 316.168,62.912 316.624,62.912Z" style="fill:white;"/>
                <path d="M296.498,54.84C297.062,52.349 297.878,50.415 299.328,49.855C300.522,49.529 300.475,48.38 299.694,48.449C298.925,48.527 296.594,50.631 296.498,54.84Z"/>
                <path d="M317.751,51.316C316.646,49.992 315.585,49.077 314.579,49.199C313.792,49.379 313.458,48.671 313.931,48.465C314.392,48.269 316.402,48.791 317.751,51.316Z"/>
                <path d="M309.377,74.675C311.79,71.678 314.16,69.731 316.74,70.374C318.583,70.874 319.34,72.931 318.436,75.373C318.689,69.059 313.792,70.334 309.377,74.675Z"/>
                <path d="M271.313,78.61C272.094,75.709 273.632,75.719 275.183,76.019C276.434,76.373 276.979,75.816 276.428,75.276C275.867,74.738 271.115,74.051 271.313,78.61Z"/>
                <path d="M258.66,199.802C259.094,199.92 259.545,200.035 260.006,200.139C260.756,200.32 261.349,200.573 261.42,200.974C261.661,202.438 261.552,208.364 260.771,210.479C260.596,211.163 259.854,211.004 259.346,210.841C259.073,210.752 258.846,210.667 258.66,210.574C257.424,210.029 256.198,209.343 255.941,207.855C255.677,205.028 255.514,202.362 255.941,200.839C256.448,199.536 257.286,199.025 258.66,199.802Z" style="fill:rgb(254,245,136);"/>
                <path d="M263.408,200.848C264.546,201.05 265.731,201.237 266.944,201.393C267.552,201.48 267.612,202.526 267.657,202.867L267.283,210.688C266.921,211.882 266.394,211.978 265.895,211.929C264.916,211.83 263.995,211.723 263.173,211.603C261.273,211.301 261.273,210.835 261.596,209.263C262.068,206.639 261.993,204 261.993,202.312C262.142,201.519 261.87,200.746 263.408,200.848Z" style="fill:rgb(254,245,136);"/>
            </g>
            <g transform="matrix(0.261692,0,0,0.261692,375.382,25.2704)">
                <path d="M229.9,78.76C230.11,78.929 230.322,79.084 230.455,79.18C231.178,79.756 232.393,80.663 232.162,81.722C233.96,82.093 235.576,82.996 236.629,84.614L236.668,84.668L236.689,84.727C238.474,88.39 237.992,92.56 235.049,95.459C233.616,96.867 231.763,97.781 229.763,98.042L229.703,98.046L229.646,98.046C228.634,98.051 227.739,98.036 226.892,97.948C226.88,100.663 227.782,102.884 230.075,104.453L231.512,105.441L229.938,106.173C222.151,109.813 212.641,110.984 204.163,109.786C190.725,107.896 179.892,100.232 175.745,86.886L175.745,86.864L175.741,86.84C169.339,62.369 194.518,41.269 217.728,45.632L217.802,45.638L217.854,45.659C232.524,50.344 236.52,63.205 232.818,77.178C232.749,77.426 232.778,77.362 232.657,77.574C232.165,78.393 231.125,78.553 230.265,78.695C230.189,78.707 230.052,78.726 229.9,78.76Z"/>
                <path d="M229.508,105.274C212.802,113.09 184.143,110.618 176.693,86.59C170.467,62.783 195.094,42.39 217.547,46.605C230.421,50.712 235.835,61.921 231.856,76.925C231.583,77.976 228.614,77.437 228.347,78.557C228.215,79.135 233.211,81.765 230.261,81.854C227.538,82.005 225.341,82.748 223.779,84.225C228.037,81.71 233.662,81.899 235.807,85.159C238.597,90.929 234.739,96.387 229.634,97.051C226.349,97.068 224.743,96.746 222.539,95.625C223.005,96.482 223.939,97.228 225.904,97.677C225.825,101.268 227.181,103.677 229.508,105.274Z" style="fill:rgb(249,189,157);"/>
                <path d="M208.498,70.634C207.949,68.247 207.156,66.387 205.775,65.846C204.636,65.528 204.683,64.434 205.428,64.501C206.155,64.574 208.406,66.591 208.498,70.634Z"/>
                <path d="M220.098,110.39C219.428,110.39 218.792,110.305 218.154,110.13L216.038,109.551L217.993,108.553C221.998,106.515 223.73,104.885 224.832,102.843L219.013,104.274L218.256,102.806L225.958,96.175L226.194,96.137C230.765,95.396 233.19,90.202 232.917,86.806C232.812,85.504 232.218,83.325 229.418,83.325C228.489,83.325 227.405,83.563 226.195,84.031L225.611,84.231C223.453,84.966 222.151,85.408 220.963,91.33L219.282,91.225C218.717,83.532 221.813,80.49 224.543,77.806C226.573,75.812 228.336,74.08 228.583,70.627C227.511,70.994 225.041,72.761 222.959,75.454L221.835,76.909L221.456,75.11C221.443,75.052 220.463,70.129 224.261,67.066C221.284,67.551 220.751,71.268 220.729,71.436L220.36,74.194L219.125,71.704C217.144,67.704 214.685,67.295 210.217,66.553C205.279,65.733 198.515,64.611 188.747,57.8L188.672,57.749L188.611,57.683C188.474,57.534 188.388,57.353 188.357,57.156C188.31,57.164 188.259,57.167 188.206,57.167L187.803,57.167L187.485,56.823C186.521,55.418 180.755,55.249 177.311,55.147C175.046,55.081 173.257,55.028 172.371,54.754L170.856,54.286L172.084,53.284C179.263,47.427 193.867,37.405 211.013,36.093C211.791,36.042 212.577,36.016 213.362,36.016C223.993,36.016 234.943,40.583 239.203,46.514C239.481,45.188 239.659,43.634 239.733,41.864L241.348,41.536C242.864,44.714 243.612,47.694 243.581,50.416C245.093,50.049 246.751,49.863 248.53,49.863C249.167,49.863 249.828,49.888 250.498,49.934L250.782,51.559C249.271,52.229 247.963,52.916 246.877,53.609C248.278,54.14 249.707,54.856 251.141,55.747L250.639,57.315C249.8,57.26 249,57.232 248.262,57.232C247.351,57.232 246.509,57.275 245.742,57.359C249.401,60.665 251.109,66.44 251.088,75.296C250.933,94.547 234.998,105.812 225.605,109.433L225.537,109.458L225.466,109.473C224.85,109.595 224.289,109.719 223.765,109.834C222.421,110.132 221.261,110.39 220.098,110.39Z"/>
                <path d="M229.458,70.184C229.339,68.595 225.192,71.174 222.286,74.936C222.286,74.936 221.006,68.869 226.956,66.486C220.747,64.639 219.886,71.327 219.886,71.327C215.359,62.188 207.726,69.997 189.232,57.104C188.984,56.837 189.965,55.806 191.52,55.059C188.982,54.739 188.391,56.587 188.142,56.285C186.389,53.72 174.93,54.655 172.622,53.942C179.611,48.24 194.219,38.229 211.079,36.939C223.477,36.13 236.445,42.114 239.492,48.667C240.088,46.972 240.463,44.732 240.582,41.9C242.339,45.588 242.946,48.815 242.667,51.558C244.811,50.862 247.386,50.567 250.437,50.781C248.135,51.805 246.342,52.838 245.009,53.887C246.789,54.384 248.688,55.225 250.694,56.468C247.768,56.275 245.452,56.412 243.678,56.859C247.936,59.538 250.262,65.127 250.238,75.294C250.092,93.412 235.21,104.818 225.301,108.64C222.292,109.233 220.534,109.899 218.379,109.31C223.61,106.647 225.175,104.556 226.33,101.601L218.81,103.45L226.33,96.977C235.132,95.547 237.518,78.742 225.888,83.238C223.234,84.178 221.512,84.272 220.129,91.162C219.165,78.033 229.17,79.439 229.458,70.184Z" style="fill:rgb(254,245,136);"/>
                <path d="M209.483,93.595C208.859,92.2 207.998,90.931 206.531,90.448C205.89,90.262 205.304,90.583 205.877,91.101C206.063,91.271 206.523,91.41 206.924,91.632C200.668,97.615 191.772,98.26 186.975,92.944L186.846,93.194C188.621,95.277 190.884,96.499 193.404,96.936C198.269,100.569 200.076,97.259 203.199,95.23C204.791,94.465 206.363,93.469 207.874,92.26C208.344,92.526 208.874,92.969 209.483,93.595Z"/>
                <path d="M196.498,99.446C197.846,99.397 198.641,99.412 199.442,98.774C200.03,98.216 200.663,98.632 200.369,99.038C200.065,99.452 198.243,99.665 196.498,99.446Z"/>
                <path d="M204.116,70.847C207.432,76.042 204.46,85.637 200.907,86.324C201.791,86.506 203.224,86.546 205.018,86.496C201.888,87.215 198.604,86.814 196.861,84.784C196.591,84.481 196.551,84.308 196.738,84.272C197.147,84.621 197.686,85.091 198.384,85.435C194.418,79.544 198.229,67.531 202.79,70.001C203.375,70.253 203.819,70.498 204.116,70.847Z"/>
                <path d="M201.436,70.293C199.389,70.15 197.466,73.534 197.131,77.852C196.798,82.168 198.198,85.788 200.236,85.92C201.431,86.003 202.583,84.888 203.401,83.099C202.902,83.692 202.334,84.011 201.791,83.924C200.674,83.744 200.141,81.879 200.598,79.763C201.051,77.645 202.326,76.071 203.444,76.251C203.968,76.336 204.373,76.8 204.596,77.485C204.688,73.569 203.348,70.417 201.436,70.293Z" style="fill:white;"/>
                <path d="M190.616,67.579C192.179,71.99 189.402,80.304 185.826,81.234C186.081,81.287 186.677,81.324 187.349,81.362C187.498,81.374 187.443,81.611 187.223,81.667C185.266,82.059 183.368,81.058 181.491,79.119C182.78,80.011 183.914,80.693 184.703,80.917C182.545,76.417 186.921,66.142 190.025,67.217C190.025,67.217 190.481,67.469 190.616,67.579Z"/>
                <path d="M189.63,68.035C188.401,67.475 186.43,69.896 185.237,73.445C184.043,76.99 184.074,80.32 185.299,80.887C185.942,81.181 186.802,80.65 187.626,79.566C187.403,79.681 187.172,79.722 186.958,79.686C185.935,79.525 185.539,77.632 186.083,75.468C186.613,73.313 187.874,71.695 188.898,71.871C189.645,71.99 190.051,73.03 190.018,74.428C190.872,71.296 190.735,68.54 189.63,68.035Z" style="fill:white;"/>
                <path d="M204.318,77.996C203.755,77.996 203.295,78.557 203.295,79.239C203.295,79.932 203.755,80.488 204.318,80.488C204.881,80.488 205.341,79.932 205.341,79.239C205.341,78.557 204.881,77.996 204.318,77.996Z" style="fill:white;"/>
                <path d="M188.948,74.571C188.518,74.571 188.158,74.999 188.158,75.532C188.158,76.067 188.518,76.499 188.948,76.499C189.391,76.499 189.754,76.067 189.754,75.532C189.754,74.999 189.391,74.571 188.948,74.571Z" style="fill:white;"/>
                <path d="M186.685,63.93C188.135,62.442 189.521,61.454 190.725,61.702C191.655,62 192.114,61.18 191.569,60.889C191.024,60.594 188.558,61.029 186.685,63.93Z"/>
                <path d="M195.911,85.856C193.593,82.982 191.321,81.116 188.841,81.735C187.076,82.208 186.351,84.183 187.223,86.532C186.975,80.473 191.674,81.695 195.911,85.856Z"/>
                <path d="M231.142,88.556C230.4,85.768 228.927,85.779 227.424,86.063C226.236,86.402 225.714,85.871 226.238,85.359C226.763,84.833 231.339,84.178 231.142,88.556Z"/>
                <path d="M214.838,40.691C196.936,41.111 193.974,48.387 189.694,51.596C199.293,44.992 197.346,43.971 214.838,40.691Z" style="fill:rgb(20,8,15);"/>
                <path d="M214.838,40.691C196.936,41.111 193.974,48.387 189.694,51.596C199.293,44.992 197.346,43.971 214.838,40.691Z" style="fill:none;stroke:rgb(246,240,133);stroke-width:3.44px;"/>
                <path d="M190.998,63.598C190.283,65.083 189.934,66.387 190.459,67.213C190.935,67.819 190.453,68.392 190.084,68.066C189.716,67.741 189.349,65.792 190.998,63.598Z"/>
                <path d="M189.305,63.398C188.606,64.889 188.25,66.19 188.766,67.019C189.247,67.628 188.766,68.195 188.397,67.871C188.03,67.55 187.674,65.598 189.305,63.398Z"/>
                <path d="M186.87,64.392C186.567,66.01 186.549,67.354 187.262,68.028C187.869,68.5 187.549,69.168 187.107,68.946C186.67,68.723 185.835,66.924 186.87,64.392Z"/>
                <path d="M203.555,65.967C203.502,67.615 203.224,68.935 202.375,69.427C201.672,69.758 201.841,70.48 202.318,70.359C202.79,70.243 204.008,68.669 203.555,65.967Z"/>
                <path d="M205.537,66.833C205.245,68.457 204.774,69.713 203.872,70.082C203.127,70.311 203.195,71.051 203.671,70.997C204.163,70.943 205.593,69.571 205.537,66.833Z"/>
                <path d="M207.333,69.013C206.563,70.478 205.731,71.531 204.761,71.609C203.989,71.59 203.819,72.313 204.298,72.419C204.774,72.518 206.552,71.644 207.333,69.013Z"/>
                <path d="M237.97,82.926C237.375,82.926 236.973,82.375 236.547,81.793L236.493,81.716C236.485,81.705 236.396,81.565 236.385,81.374C236.38,81.371 236.375,81.37 236.371,81.367C236.319,81.339 236.249,81.302 236.223,81.294C235.212,80.916 234.467,80.185 234.005,79.159C233.108,77.167 233.319,74.216 234.6,70.857C235.911,67.386 238.09,65.152 241.076,64.219C241.21,64.178 241.351,64.159 241.513,64.159C242.157,64.159 243.003,64.481 243.815,64.81L244.075,64.913C244.722,65.158 245.196,65.606 245.483,66.241C246.333,68.128 245.384,71.467 243.7,75.9C242.183,79.89 240.791,82.315 238.166,82.905L238.098,82.919L237.97,82.926Z"/>
                <path d="M243.847,65.507C246.21,66.401 245.038,70.588 243.104,75.674C241.539,79.793 240.22,81.791 238.027,82.282C237.734,82.356 237.367,81.834 237.024,81.367C236.984,81.304 237.271,81.253 237.493,80.83C237.024,81.149 236.725,80.772 236.391,80.681C234.021,79.784 233.26,76.162 235.194,71.084C236.695,67.114 239.131,65.495 241.266,64.828C241.86,64.644 243.322,65.306 243.847,65.507Z" style="fill:rgb(91,186,71);"/>
                <path d="M265.739,124.328C263.065,122.102 260.321,119.767 257.889,117.303C258.571,118.431 259.409,119.661 260.383,121.028L259.221,122.229C255.6,119.833 252.634,117.019 250.205,113.655C250.023,115.009 250.173,116.67 250.652,118.627L251.371,121.547L249.231,119.432C247.485,117.707 247.045,116.483 246.621,115.3C246.539,115.075 246.456,114.847 246.364,114.61C244.765,116.234 243.518,116.732 242,117.338C241.762,117.432 241.514,117.532 241.252,117.64L239.24,118.475L240.158,116.498C242.335,111.806 242.784,109.087 242.43,106.379L238.364,111.657L236.861,110.959C237.021,110.217 237.31,109.138 237.677,107.77C239.18,102.15 241.98,91.688 240.151,87.537C237.42,81.379 235.136,74.458 238.888,69.814C245.61,61.502 251.106,59.756 254.534,59.756C257.861,59.756 260.851,61.386 262.955,64.343C266.032,68.674 266.77,75.07 264.833,80.64C259.622,95.638 260.403,110.781 267.033,123.277L265.739,124.328Z"/>
                <path d="M266.283,123.675C262.069,120.166 258.009,116.628 255.1,112.876C255.505,115.299 257.212,118.041 259.691,121.521C255.913,119.023 252.571,115.846 249.877,111.675C249.099,113.399 249.083,115.789 249.828,118.827C247.413,116.442 247.768,115.253 246.597,113.09C244.421,115.663 243.112,115.951 240.928,116.856C243.709,110.865 243.745,107.877 242.914,104.357L237.692,111.14C238.531,107.251 243.322,92.629 240.928,87.194C238.114,80.847 236.193,74.503 239.549,70.348C256.521,49.358 268.741,66.819 264.03,80.36C258.446,96.434 259.859,111.567 266.283,123.675Z" style="fill:rgb(254,245,136);"/>
                <path d="M227.2,143.49C226.22,144.114 225.041,144.228 223.924,144.015C223.884,144.943 223.872,145.861 223.862,146.781L223.982,149.205L224.574,150.518C225.358,152.232 226.281,153.916 227.146,155.594C228.21,157.634 229.649,160.349 230.149,162.627C232.078,163.828 234.63,165.724 235.336,167.036C236.796,169.606 235.265,174.225 231.805,173.94C229.811,173.809 228.086,172.262 226.806,170.784C226.591,170.815 226.362,170.852 226.139,170.883C227.368,172.768 228.322,174.773 228.936,177.01C229.999,180.309 227.562,184.301 223.729,183.245L223.691,183.235L223.65,183.227C223.182,183.056 222.77,182.798 222.366,182.453C223.101,185.013 222.815,187.413 222.589,190.041C232.007,190.613 239.312,197.188 241.689,206.273L241.863,206.956C242.541,207.291 243.079,207.957 243.494,208.705L243.527,208.758L243.549,208.815C244.082,210.088 243.797,212.131 243.62,213.475L243.581,213.779L243.376,214.007C240.383,217.372 226.625,217.052 222.374,216.934C219.228,216.845 203.649,216.101 201.422,214.34L201.275,214.221C200.448,214.655 199.039,214.681 198.399,214.742C196.169,214.955 193.912,215.086 191.674,215.202C184.957,215.557 178.209,215.761 171.482,215.877C165.404,215.977 159.289,216.023 153.213,215.867C150.946,215.807 148.672,215.729 146.409,215.543C145.188,215.44 143.509,215.305 142.328,214.918C141.06,214.693 140.607,213.981 140.273,212.828L140.219,212.691L140.219,209.587L140.365,209.432C140.409,209.232 140.432,209.005 140.494,208.798C140.566,208.523 140.69,208.272 140.835,208.054L140.844,207.505C141.017,194.231 149.412,187.766 162.232,186.685C163.285,186.532 164.35,186.648 165.242,187.287C165.623,187.558 165.941,187.91 166.198,188.302L166.24,188.298C167.421,188.163 168.599,188.037 169.759,187.91C169.75,187.818 169.735,187.735 169.727,187.652L169.633,186.706L170.568,186.56C171.425,186.432 172.251,186.222 173.091,186.022C175.054,185.564 176.724,185.531 178.74,185.681L179.587,185.736L179.638,186.404C180.226,186.252 181.102,186.002 181.434,185.771C181.537,183.659 181.434,182.642 180.725,180.51L180.234,178.995C181.184,178.813 182,178.394 183.11,178.44C182.962,175.237 182.427,171.684 181.807,168.822L181.772,168.644C178.287,167.788 175.026,166.726 172.335,165.445L171.76,165.166L171.773,164.538C171.847,159.198 173.488,153.196 175.125,148.141C177.224,141.663 179.837,135.427 182.582,129.208L181.731,128.981L182.026,128.382C181.353,128.301 180.644,128.038 179.875,127.696C178.655,127.162 177.556,126.416 176.744,125.337C176.541,125.079 176.348,124.711 176.166,124.394C174.997,125.24 174.06,125.476 172.406,125.601C171.693,125.659 171.052,125.723 170.333,125.723L170.318,124.424L170.356,123.695C170.398,122.891 170.724,121.216 171.008,120.48L171.027,120.437C168.949,119.287 166.814,118.378 164.506,117.599L163.984,117.424C161.364,118.289 158.214,117.676 155.397,116.301L155.377,116.295L155.354,116.283C155.017,116.099 154.692,115.892 154.381,115.657L154.038,115.779C151.801,116.535 149.395,117.355 147.004,116.87C143.892,116.226 143.353,112.297 146.048,110.705L146.109,110.67L146.161,110.648C147.849,109.921 149.718,109.982 151.507,109.714C151.507,109.619 151.516,109.523 151.516,109.421C149.18,109.106 146.915,108.57 145.162,106.873L145.131,106.833L145.088,106.785C144.429,105.999 144.217,104.7 144.355,103.71C144.643,101.708 146.18,100.682 148.158,100.8L148.18,100.811L148.197,100.811C150.574,101.064 152.183,101.983 153.906,103.409C154,103.295 154.088,103.178 154.168,103.064L154.211,103.006C153.744,102.538 153.228,102.129 152.707,101.708C151.174,100.518 150.088,99.527 149.211,97.735L149.205,97.708C149.027,97.326 149.124,97.589 149.027,97.191C148.455,94.675 151.227,92.115 153.729,93.233C154.941,93.715 156.059,94.781 157.025,95.923C157.025,95.799 157.01,95.665 157.003,95.534C156.873,92.477 157.69,89.658 160.665,88.35C162.937,87.325 165.513,88.417 165.623,91.149L165.623,91.205C165.601,93.266 165.612,95.61 165.962,97.646C166.908,99.925 167.793,99.621 169.173,101.192C169.951,102.023 170.377,103.728 170.266,105.044C170.451,105.065 170.642,105.099 170.837,105.155L170.878,105.17L170.898,105.174C171.812,105.512 172.712,105.882 173.599,106.25L173.646,106.177C173.855,105.811 174.102,105.572 174.355,105.244L174.488,105.047L175.076,104.244L175.423,104.29L175.801,104.339C177.973,104.621 177.816,105.693 178.982,106.614C179.367,106.439 180.47,105.773 180.735,105.657C182.353,104.932 184.06,104.914 185.778,105.261C190.042,105.931 193.103,107.639 195.033,111.561L195.258,112.019C197.105,111.423 199.399,111.361 202.531,111.856L202.709,111.879L205.106,109.009L217.26,109.119L214.317,113.675C215.916,114.167 217.528,114.696 219.054,115.333C220.075,115.752 221.932,116.539 222.249,117.718L222.249,117.731C222.499,117.795 222.743,117.87 222.999,117.959L223.03,117.965L223.063,117.981C230.414,121.045 230.502,127.105 229.094,133.833C228.826,134.959 228.353,136.18 227.397,136.899C227.183,137.064 226.999,137.166 226.838,137.238C227.574,138.286 227.806,139.194 227.949,140.744C227.971,140.992 228.083,141.73 228.043,142.126C227.985,142.62 227.759,143.285 227.2,143.49ZM200.943,207.649C201.133,207.469 201.377,207.33 201.636,207.236C201.603,207.224 201.576,207.211 201.54,207.2L201.021,206.981L200.943,207.649ZM200.913,206.939L200.832,206.9C200.826,206.906 200.822,206.92 200.815,206.939L200.913,206.939ZM207.13,196.197C205.071,192.516 204.746,188.273 203.444,184.36L203.02,183.064L204.373,182.883C202.983,179.208 201.625,175.502 200.785,171.651L200.744,171.463C199.739,171.4 198.687,171.319 197.597,171.221C197.441,172.665 197.324,174.063 197.296,175.512L197.632,179.924C197.868,180.168 197.967,180.163 198.474,179.968C198.906,179.569 199.427,179.256 200.023,179.589C200.377,179.777 200.469,179.982 200.539,180.24L200.598,180.438L200.568,180.65C200.182,183.322 199.839,185.955 200.464,188.615C200.682,189.568 200.922,190.466 201.091,191.423L201.343,191.797C203.274,194.606 203.136,198.932 202.224,202.728C203.444,200.29 205.202,198.03 207.13,196.197ZM221.006,180.792C219.949,179.076 219.273,176.818 218.916,174.937C219.028,176.735 218.849,178.544 218.422,180.304L218.691,180.706C219.028,180.814 219.895,180.695 220.747,181.045L221.006,180.792Z"/>
                <path d="M152.021,108.488C152.385,107.022 152.921,105.663 153.699,104.534C152.42,103.433 150.808,102.081 148.093,101.797C144.797,101.592 144.981,105.107 145.856,106.152C147.454,107.707 149.57,108.179 152.021,108.488Z" style="fill:rgb(249,189,157);"/>
                <path d="M153.713,114.835C151.131,115.722 149.173,116.295 147.208,115.898C144.899,115.422 144.692,112.663 146.552,111.561C148.122,110.886 150.131,110.956 151.911,110.657C151.887,112.136 152.497,113.526 153.713,114.835Z" style="fill:rgb(249,189,157);"/>
                <path d="M155.033,102.419C153.389,100.712 151.427,100.003 150.1,97.297C149.379,95.688 151.33,93.233 153.345,94.148C154.73,94.692 156.215,96.286 157.776,98.582C158.154,99.153 158.1,99.63 157.458,100.016C156.479,100.722 155.583,101.459 155.033,102.419Z" style="fill:rgb(249,189,157);"/>
                <path d="M215.439,110.095L205.569,110.008L202.6,113.569C197.823,116.741 208.299,114.093 213.119,113.701L215.439,110.095Z" style="fill:rgb(249,189,157);"/>
                <path d="M175.931,108.267C174.003,107.541 172.18,106.704 170.564,106.104C169.646,105.839 168.98,106.357 168.563,107.665C168.637,106.666 168.835,106.371 169.154,105.593C169.505,104.628 169.154,102.613 168.438,101.861C167.296,100.55 166.081,100.618 165.004,97.929C164.702,96.228 164.602,93.885 164.641,91.19C164.533,88.921 162.417,88.646 161.078,89.256C159.325,90.021 157.828,91.616 157.993,95.49C158.053,96.886 158.253,97.476 159.017,98.614C159.25,99.004 159.372,99.527 158.823,99.738C154.541,102.172 154.495,105.404 157.39,109.038C155.331,107.342 154.678,105.544 154.948,103.674C150.886,108.902 152.366,113.528 155.823,115.408C156.689,115.831 164.611,119.687 167.562,112.6C167.411,114.417 166.638,115.841 164.816,116.654C168.14,117.771 170.835,119.046 173.55,120.784C175.248,118.561 176.693,112.98 175.931,108.267Z" style="fill:rgb(249,189,157);"/>
                <path d="M209.295,115.038L213.119,114.346C217.306,115.619 221.013,116.944 221.292,117.965C214.928,116.601 210.64,121.012 208.154,130.51C207.926,131.576 208.287,134.214 209.366,134.623C207.043,135.57 206.732,137.114 207.016,138.108C207.338,139.271 208.425,139.794 210.735,140.319L211.494,144.91C212.12,148.746 212.739,152.577 213.366,156.416C209.729,157.515 210.346,159.98 209.552,161.766C208.993,163.2 208.932,164.137 204.862,165.806C199.163,167.267 201.472,170.484 201.32,170.503C195.227,170.145 181.128,168.551 172.768,164.544C172.936,153.157 181.062,135.1 183.914,128.657C184.296,127.413 185.5,124.587 185.376,124.527C185.259,124.477 183.963,128.55 183.166,128.335C183.467,127.725 183.76,127.134 184.03,126.56C183.008,127.747 182.052,127.57 180.277,126.79C176.931,125.317 177.01,123.189 176.288,123.017C173.943,125.042 172.833,124.367 171.391,124.764C176.253,120.041 178.173,111.52 175.677,105.319C177.494,105.554 177.144,106.605 178.698,107.625C179.927,107.897 181.006,105.309 185.606,106.24C190.29,106.97 192.638,108.946 194.135,111.995C190.144,115.727 188.934,118.414 188.001,120.917C192.358,114.044 194.205,111.556 202.365,112.831C195.983,117.196 204.902,116.179 209.295,115.038ZM223.671,150.933C225.325,154.557 228.565,159.811 229.211,162.981C229.006,162.853 228.695,162.555 228.466,162.48C227.405,158.616 225.47,156.48 224.032,155.377C223.958,154.578 223.646,153.166 223.671,150.933ZM227.189,169.695C226.685,169.793 225.444,170.015 224.713,169.962C224.464,169.948 224.543,169.526 224.374,169.557C225.076,169.289 225.468,168.72 225.883,168.323C225.97,168.581 226.912,169.39 227.189,169.695ZM212.802,170.527C212.532,166.94 211.565,169.865 210.696,170.603C211.39,170.58 212.096,170.563 212.802,170.527Z" style="fill:rgb(254,245,136);"/>
                <path d="M207.615,137.828C207.815,136.007 208.864,136.34 209.862,134.765C210.109,133.536 207.896,133.686 209.234,129.268C211.776,120.482 216.461,116.773 222.673,118.901C229.925,121.921 229.263,128.148 228.126,133.611C227.283,137.174 225.454,136.177 225.295,136.899C227.353,139.212 226.697,140.338 227.125,141.765C222.319,136.997 213.759,135.225 207.615,137.828Z" style="fill:rgb(254,245,136);"/>
                <path d="M196.802,182.212L196.305,175.543C196.321,173.953 196.433,172.801 196.609,171.122C192.433,170.989 186.856,169.718 182.78,168.611C183.715,172.913 184.233,178.195 184.125,181.168C187.188,182.922 197.391,184.907 196.802,182.212Z" style="fill:rgb(249,189,157);"/>
                <path d="M218.533,182.296C218.289,181.926 218.063,181.58 217.851,181.24C217.774,181.499 217.693,181.754 217.605,182.021L217.605,182.034L217.597,182.054C217.267,182.903 216.85,183.662 216.33,184.255C217.789,183.823 218.725,183.167 218.533,182.296ZM212.421,171.792C211.603,171.828 210.773,171.872 209.933,171.902C209.544,172.186 209.102,172.427 208.566,172.665C206.208,173.708 203.989,173.48 202.063,171.742C201.959,171.648 201.852,171.544 201.758,171.442C202.689,175.737 204.66,180.832 205.819,183.898C207.05,184.604 209.456,184.919 211.837,184.862C207.798,181.975 211.664,176.077 212.421,171.792Z" style="fill:rgb(249,189,157);"/>
                <path d="M213.5,154.578C213.541,154.992 213.573,155.397 213.604,155.793C213.722,156.741 214.848,157.068 216.211,156.91C215.267,157.26 214.923,157.194 214.082,157.224C213.06,157.302 211.367,158.439 210.977,159.4C210.251,160.969 210.803,162.049 208.8,164.128C207.378,165.102 205.284,166.14 202.812,167.22C200.785,168.237 201.407,170.278 202.505,171.251C203.755,172.37 205.593,173.252 208.299,172.061C210.078,171.271 210.748,170.356 211.776,168.726C212.039,168.359 212.699,168.313 212.967,169.017C214.49,173.501 207.425,181.591 212.641,184.591C214.832,185.317 216.112,184.03 216.98,181.815C217.967,178.792 218.187,175.945 217.727,173.273L216.702,172.74C217.974,172.981 219.291,172.801 220.622,172.33L219.638,173.064C219.935,175.912 221.335,181.331 223.982,182.292C227.181,183.166 228.773,179.694 227.979,177.292C227.146,174.233 225.679,171.742 223.924,169.503C224.792,169.05 225.676,168.19 226.558,166.933L226.184,168.226L227.189,169.695C229.074,171.986 230.584,172.867 231.872,172.951C234.545,173.167 235.513,169.36 234.471,167.522C233.79,166.266 230.303,163.728 228.23,162.653C226.147,156.691 224.005,156.902 223.299,155.482L222.862,146.814C222.881,144.727 222.977,142.592 223.131,140.405C220.027,137.599 214.914,136.588 211.044,137.794C211.858,143.39 212.673,148.986 213.483,154.586L213.5,154.578Z" style="fill:rgb(249,189,157);"/>
                <path d="M240.736,206.523C230.107,210.809 210.197,209.722 201.913,206.276C203.704,199.533 211.659,190.957 221.748,191.001C232.114,191.237 238.676,198.698 240.736,206.523Z" style="fill:rgb(91,186,71);"/>
                <path d="M240.353,207.852C237.932,209.57 220.241,212.071 202.7,208.106C202.07,207.957 201.54,208.364 201.472,208.608C201.266,209.458 201.357,212.308 202.04,213.56C204.361,215.391 238.427,218.074 242.634,213.346C242.86,211.672 243.012,210.101 242.634,209.204C242.191,208.433 241.545,207.392 240.353,207.852Z" style="fill:rgb(254,245,136);"/>
                <path d="M200.141,191.775C199.549,188.104 198.521,187.838 199.585,180.51C199.501,180.218 198.571,181.284 197.868,180.865C197.686,181.016 197.975,181.735 197.95,181.625C199.121,186.266 185.385,183.834 181.67,180.196C182.597,183.03 182.524,184.088 182.417,186.044C182.36,186.603 181.192,187.075 179.415,187.485C179.886,191.932 181.418,198.008 186.208,199.278C191.442,200.659 197.09,195.748 199.997,191.952L200.141,191.775ZM170.207,188.858C168.898,189.011 167.588,189.149 166.36,189.276C166.695,190.041 166.908,190.88 167.065,191.628C167.455,193.431 167.682,195.251 168.19,197.029C169.669,202.245 172.964,203.935 177.808,203.795C176.407,202.675 175.121,201.119 174.261,199.835C172.062,196.561 170.772,192.748 170.207,188.858Z" style="fill:rgb(0,192,243);"/>
                <path d="M199.659,207.056C180.572,208.013 161.407,208.717 141.844,207.511C141.975,197.052 147.508,188.913 162.349,187.674C170.444,186.404 161.666,206.356 179.853,204.31C177.494,203.276 171.818,198.03 170.724,187.538C173.563,187.107 174.261,186.346 178.672,186.665C180.138,204.823 192.73,202.523 200.524,192.356C203.118,196.133 201.517,203.187 199.659,207.056Z" style="fill:rgb(91,186,71);"/>
                <path d="M208.043,195.804C206.08,192.342 205.479,187.339 204.385,184.05C206.388,185.231 209.772,185.786 213.172,185.407C214.067,185.553 214.821,185.387 215.454,185.001C217.633,184.459 219.67,183.498 221.177,182.005C222.27,184.986 221.741,188.191 221.57,190.342C216.619,190.369 212.004,192.398 208.289,195.595C208.212,195.662 208.123,195.731 208.043,195.804Z" style="fill:rgb(0,192,243);"/>
                <path d="M200.913,213.296C200.603,214.402 148.778,216.065 142.56,213.954C141.487,213.779 141.372,213.042 141.223,212.544L141.223,209.97C141.442,209.734 141.273,208.52 142.105,208.347C174.922,210.069 194.314,207.746 199.913,207.9C199.764,209.18 200.387,212.622 200.913,213.296Z" style="fill:rgb(254,245,136);"/>
                <path d="M210.697,192.107C211.603,192.024 212.412,192.172 213.06,192.516C211.713,193.287 210.401,194.165 209.14,195.119C207.515,196.361 205.89,197.813 204.439,199.386C204.373,198.882 204.385,198.335 204.506,197.749C205.106,194.924 207.874,192.404 210.697,192.107Z"/>
                <path d="M210.531,192.873C211.146,192.81 211.713,192.864 212.188,193.027C209.063,194.491 207.098,196.461 205.063,198.734C205.04,198.402 205.071,198.05 205.145,197.681C205.658,195.277 208.069,193.123 210.531,192.873Z" style="fill:rgb(91,186,71);"/>
                <path d="M176.387,190.774C179.211,190.774 181.5,193.275 181.5,196.357C181.5,199.444 179.211,201.948 176.387,201.948C173.558,201.948 171.269,199.444 171.269,196.357C171.269,193.275 173.558,190.774 176.387,190.774Z" style="fill:rgb(20,8,15);"/>
                <path d="M176.387,191.595C178.857,191.595 180.867,193.728 180.867,196.357C180.867,198.988 178.857,201.119 176.387,201.119C173.907,201.119 171.899,198.988 171.899,196.357C171.899,193.728 173.907,191.595 176.387,191.595Z" style="fill:rgb(91,186,71);"/>
                <path d="M210.078,138.058C210.163,138.624 210.213,138.958 210.243,139.194C209.514,139.05 208.968,138.814 208.535,138.532C209.07,138.339 209.589,138.184 210.078,138.058Z" style="fill:rgb(0,192,243);"/>
                <path d="M226.663,142.653C225.771,143.216 224.735,143.177 223.97,143.014C223.924,142.229 224.07,141.053 224.111,140.604C224.652,140.41 226.352,142.346 226.663,142.653Z" style="fill:rgb(0,192,243);"/>
                <path d="M174.221,106.51C174.749,106.712 174.989,106.876 175.239,106.993C175.054,106.357 174.952,106.298 174.886,105.638C174.534,106.121 174.467,106.092 174.221,106.51Z" style="fill:rgb(0,192,243);"/>
                <path d="M171.014,123.737C171.476,123.452 172.643,121.705 172.795,121.485C172.274,121.009 171.87,120.917 171.621,120.718C171.37,121.374 171.052,123.231 171.014,123.737Z" style="fill:rgb(0,192,243);"/>
                <path d="M219.594,182.481C219.377,181.954 219.256,181.641 219.165,181.419C219.907,181.386 220.331,181.482 220.81,181.656C220.341,181.975 220.047,182.242 219.594,182.481Z" style="fill:rgb(0,192,243);"/>
                <path d="M183.219,180.271C183.148,179.872 183.14,179.411 183.133,179.037C182.392,179.084 182.382,179.195 181.913,179.425C182.413,179.75 182.742,180.091 183.219,180.271Z" style="fill:rgb(0,192,243);"/>
            </g>
        </g>
    </g>
</svg>
