<?xml version="1.0" encoding="UTF-8" standalone="no"?><!DOCTYPE svg PUBLIC "-//W3C//DTD SVG 1.1//EN" "http://www.w3.org/Graphics/SVG/1.1/DTD/svg11.dtd"><svg width="100%" height="100%" viewBox="0 0 512 512" version="1.1" xmlns="http://www.w3.org/2000/svg" xmlns:xlink="http://www.w3.org/1999/xlink" xml:space="preserve" xmlns:serif="http://www.serif.com/" style="fill-rule:evenodd;clip-rule:evenodd;stroke-linejoin:round;stroke-miterlimit:2;"><path d="M449.818,423.124c-15.502,17.998 -33.47,33.81 -53.388,46.876c-40.284,26.564 -88.558,42 -140.43,42c-51.872,0 -100.146,-15.436 -140.43,-42l-0.419,-0.276c-35.611,-23.488 -64.997,-55.633 -85.151,-93.418l-0.224,-0.421c-19.009,-35.75 -29.776,-76.563 -29.776,-119.885c0,-43.492 10.851,-84.455 30,-120.306l0.162,-0.302c27.579,-51.539 72.279,-92.537 126.496,-115.392l0.358,-0.151c30.436,-12.783 63.887,-19.849 98.984,-19.849c35.235,0 68.81,7.122 99.342,20c36.73,15.486 69.092,39.293 94.658,69.088l0.226,0.263c38.528,44.753 61.774,102.991 61.774,166.649c0,63.782 -23.337,122.124 -62,166.912l-0.182,0.212Z" style="fill:#fff;"/><path d="M402.113,316.605c-0.711,15.649 -3.199,26.332 -6.832,35.684c-7.636,19.746 -23.246,35.356 -42.992,42.992c-9.348,3.633 -20.035,6.117 -35.68,6.832c-15.675,0.715 -20.683,0.887 -60.605,0.887c-39.926,0 -44.93,-0.172 -60.609,-0.887c-15.645,-0.715 -26.332,-3.199 -35.68,-6.832c-9.813,-3.691 -18.695,-9.476 -26.039,-16.957c-7.477,-7.34 -13.262,-16.226 -16.953,-26.035c-3.633,-9.348 -6.121,-20.035 -6.832,-35.68c-0.723,-15.679 -0.891,-20.687 -0.891,-60.609c0,-39.922 0.168,-44.93 0.887,-60.605c0.711,-15.649 3.195,-26.332 6.828,-35.684c3.691,-9.809 9.48,-18.695 16.961,-26.035c7.34,-7.481 16.226,-13.266 26.035,-16.957c9.352,-3.633 20.035,-6.117 35.684,-6.832c15.675,-0.715 20.683,-0.887 60.605,-0.887c39.922,0 44.93,0.172 60.605,0.891c15.649,0.711 26.333,3.195 35.684,6.824c9.809,3.691 18.695,9.48 26.039,16.961c7.477,7.344 13.266,16.226 16.953,26.035c3.637,9.352 6.121,20.035 6.836,35.684c0.715,15.675 0.883,20.683 0.883,60.605c0,39.847 -0.167,44.911 -0.887,60.605Z" style="fill:#0cf;"/><path d="M259.884,180.614c39.887,2.025 71.6,35 71.6,75.386c0,40.386 -31.713,73.361 -71.6,75.386l-3.884,0.098c-41.691,0 -75.488,-33.793 -75.488,-75.484c0,-41.691 33.797,-75.484 75.488,-75.484l3.884,0.098Z" style="fill:#fff;"/><path d="M336.272,159.982c8.896,0.904 15.837,8.417 15.837,17.549c-0.003,9.133 -6.941,16.645 -15.837,17.55l-1.803,0.091c-9.742,0 -17.641,-7.899 -17.641,-17.641c0,-9.742 7.899,-17.64 17.641,-17.64l1.803,0.091Z" style="fill:#fff;"/></svg>