<?xml version="1.0" encoding="UTF-8" standalone="no"?><!DOCTYPE svg PUBLIC "-//W3C//DTD SVG 1.1//EN" "http://www.w3.org/Graphics/SVG/1.1/DTD/svg11.dtd"><svg width="100%" height="100%" viewBox="0 0 98 98" version="1.1" xmlns="http://www.w3.org/2000/svg" xmlns:xlink="http://www.w3.org/1999/xlink" xml:space="preserve" xmlns:serif="http://www.serif.com/" style="fill-rule:evenodd;clip-rule:evenodd;stroke-linejoin:round;stroke-miterlimit:2;"><path d="M48.875,0c-26.993,0 -48.875,21.883 -48.875,48.875c0,26.992 21.882,48.875 48.875,48.875c26.993,0 48.875,-21.883 48.875,-48.875c0,-26.992 -21.882,-48.875 -48.875,-48.875Z" style="fill:#fcfcfc;"/><path d="M68.227,56.057c-2.105,2.161 -4.639,3.725 -7.453,4.816c-2.66,1.031 -5.575,1.55 -8.461,1.896c0.437,0.474 0.642,0.707 0.914,0.979c3.916,3.937 7.851,7.854 11.754,11.802c1.33,1.346 1.607,3.014 0.875,4.577c-0.799,1.71 -2.592,2.834 -4.351,2.713c-1.114,-0.077 -1.983,-0.63 -2.754,-1.407c-2.956,-2.974 -5.968,-5.895 -8.862,-8.925c-0.845,-0.882 -1.249,-0.714 -1.994,0.052c-2.973,3.062 -5.995,6.075 -9.034,9.072c-1.365,1.346 -2.989,1.59 -4.573,0.82c-1.683,-0.814 -2.753,-2.533 -2.671,-4.262c0.058,-1.166 0.632,-2.06 1.434,-2.858c3.877,-3.869 7.742,-7.75 11.608,-11.628c0.257,-0.257 0.495,-0.53 0.868,-0.93c-5.273,-0.551 -10.028,-1.849 -14.099,-5.032c-0.506,-0.396 -1.027,-0.778 -1.487,-1.222c-1.783,-1.711 -1.962,-3.672 -0.553,-5.69c1.207,-1.728 3.231,-2.19 5.336,-1.197c0.408,0.191 0.796,0.433 1.168,0.689c7.586,5.213 18.008,5.356 25.624,0.233c0.754,-0.576 1.561,-1.05 2.496,-1.289c1.816,-0.468 3.512,0.201 4.486,1.791c1.115,1.817 1.102,3.589 -0.271,5Z" style="fill:#0cf;"/><path d="M48.945,14.863c9.52,0.026 17.161,7.813 17.112,17.438c-0.048,9.403 -7.814,17.024 -17.318,16.992c-9.407,-0.032 -17.122,-7.831 -17.066,-17.253c0.053,-9.525 7.772,-17.203 17.272,-17.177Zm-0.024,25.644c4.667,-0.017 8.384,-3.766 8.367,-8.443c-0.017,-4.679 -3.742,-8.402 -8.411,-8.406c-4.708,-0.005 -8.468,3.787 -8.432,8.508c0.035,4.66 3.794,8.358 8.476,8.341Z" style="fill:#0cf;"/></svg>