<?xml version="1.0" encoding="UTF-8" standalone="no"?><!DOCTYPE svg PUBLIC "-//W3C//DTD SVG 1.1//EN" "http://www.w3.org/Graphics/SVG/1.1/DTD/svg11.dtd"><svg width="100%" height="100%" viewBox="0 0 512 512" version="1.1" xmlns="http://www.w3.org/2000/svg" xmlns:xlink="http://www.w3.org/1999/xlink" xml:space="preserve" xmlns:serif="http://www.serif.com/" style="fill-rule:evenodd;clip-rule:evenodd;stroke-linejoin:round;stroke-miterlimit:2;"><path d="M256,0c-141.363,0 -256,114.637 -256,256c0,141.363 114.637,256 256,256c141.363,0 256,-114.637 256,-256c0,-141.363 -114.637,-256 -256,-256Z" style="fill:#fff;"/><path d="M415.961,256.262c0,0 0,51.918 -6.586,76.953c-3.691,13.703 -14.496,24.508 -28.199,28.195c-25.035,6.59 -125.176,6.59 -125.176,6.59c0,0 -99.879,0 -125.176,-6.852c-13.703,-3.687 -24.508,-14.496 -28.199,-28.199c-6.59,-24.769 -6.59,-76.949 -6.59,-76.949c0,0 0,-51.914 6.59,-76.949c3.687,-13.703 14.758,-24.774 28.199,-28.461c25.035,-6.59 125.176,-6.59 125.176,-6.59c0,0 100.141,0 125.176,6.852c13.703,3.687 24.508,14.496 28.199,28.199c6.779,24.771 6.591,76.112 6.586,77.211Z" style="fill:#0cf;"/><path d="M224.113,303.961l83.274,-47.961l-83.274,-47.961l0,95.922Z" style="fill:#fff;"/></svg>